<svg width="154" height="134" viewBox="0 0 154 134" fill="none" xmlns="http://www.w3.org/2000/svg">
<g id="Layer_1" clip-path="url(#clip0_1_838)">
<path id="Vector" d="M104.028 18.5581H50.5474C42.1358 33.0951 48.0024 70.4082 48.0024 70.4082H106.573C106.573 70.4082 112.44 33.0865 104.028 18.5581Z" fill="#080407"/>
<path id="Vector_2" d="M153.865 134.251H128.043V218.069H26.6879V134.251H0.865234C0.865234 134.251 3.28783 114.053 24.1002 93.7641C32.4049 86.9001 42.0678 81.6144 52.6208 78.3568C55.8509 77.3474 59.1636 76.5398 62.5498 75.9342C62.9627 75.8608 63.3665 75.7965 63.7794 75.7323C68.2025 75.0073 72.7449 74.6311 77.379 74.6311C97.6132 74.6311 116.168 81.798 130.639 93.7458C151.443 114.044 153.865 134.251 153.865 134.251Z" fill="#4C6F51"/>
<path id="Vector_3" fill-rule="evenodd" clip-rule="evenodd" d="M63.77 35.8145H90.9784V75.7231C90.9784 75.8883 77.3788 92.4152 77.3788 92.4152C77.3788 92.4152 63.7792 75.8883 63.7792 75.7231V35.8145H63.77Z" fill="#FFC4CB"/>
<g id="Group">
<path id="Vector_4" d="M105.055 39.5484C104.994 55.6556 92.5452 68.864 77.4043 68.8813C63.9888 68.8985 52.7992 58.7701 50.2368 45.3115C49.8745 43.4135 49.6847 41.4464 49.6847 39.4363C49.6847 38.7892 49.7019 38.1422 49.7451 37.5038C50.6768 22.1385 62.6861 9.98267 77.3698 9.98267C88.8614 9.98267 98.7137 17.428 102.907 28.031C103.39 29.2647 103.804 30.5329 104.123 31.8443C104.744 34.303 105.063 36.8826 105.055 39.5484Z" fill="#FCC6CA"/>
<path id="Vector_5" d="M107.341 35.5106C108.394 24.7524 103.64 14.1322 94.6763 8.09306C91.976 6.2727 86.1525 4.17627 81.2522 3.31354C68.2854 1.0273 55.0252 8.35188 49.659 20.3697C47.5712 25.0543 46.7343 30.2739 47.597 35.5279L48.0457 38.28C48.0457 38.28 66.8446 29.1178 72.7888 16.3666C72.7888 16.3666 82.4514 33.0777 107.177 37.1843L107.341 35.5106Z" fill="#080407"/>
<g id="Group_2">
<path id="Vector_6" d="M57.5871 43.6465C58.0358 45.277 57.8115 47.5374 57.3111 49.8409C56.1723 55.0259 49.7967 57.036 45.9316 53.3953C44.0509 51.6181 42.4548 49.6942 41.9717 47.9601C40.5913 42.9649 42.9725 37.9438 47.2775 36.7532C51.5825 35.5627 56.1981 38.6512 57.5785 43.6551L57.5871 43.6465Z" fill="#FCC6CA"/>
<path id="Vector_7" d="M97.152 43.6465C96.7034 45.277 96.9277 47.5374 97.4281 49.8409C98.5669 55.0259 104.942 57.036 108.808 53.3953C110.688 51.6181 112.284 49.6942 112.767 47.9601C114.148 42.9649 111.767 37.9438 107.462 36.7532C103.148 35.5627 98.541 38.6512 97.1606 43.6551L97.152 43.6465Z" fill="#FCC6CA"/>
</g>
</g>
<path id="Vector_8" d="M77.3787 92.4152L59.5212 105.519L52.6205 78.3568C55.8506 77.3474 59.1633 76.5399 62.5495 75.9342L63.7699 75.7231L77.3695 92.4152H77.3787Z" fill="white"/>
<path id="Vector_9" d="M77.3696 92.3876L95.2271 105.492L102.128 78.3292C98.8977 77.3198 95.585 76.5123 92.1989 75.9066L90.9784 75.6956L77.3788 92.3876H77.3696Z" fill="white"/>
</g>
<defs>
<clipPath id="clip0_1_838">
<rect width="153" height="217.318" fill="white" transform="translate(0.865234 0.750977)"/>
</clipPath>
</defs>
</svg>
