<svg width="354" height="353" viewBox="0 0 354 353" fill="none" xmlns="http://www.w3.org/2000/svg">
<g clip-path="url(#clip0_1_962)">
<path d="M250.125 60.5008C236.748 59.8885 223.623 65.6613 215.1 75.8886C213.427 77.8941 211.943 80.0495 210.674 82.3237C208.578 86.0722 208.13 91.189 202.486 90.3393C201.886 90.2519 201.324 90.6142 201.198 91.1952C198.572 103.709 199.891 117.629 208.073 127.962C212.398 133.417 219.039 137.365 225.39 140.158C238.894 146.099 254.759 147.255 268.08 140.295C279.305 134.435 287.505 123.689 290.056 111.387C290.511 109.207 290.788 106.995 290.889 104.771C291.994 81.4053 273.736 61.5879 250.125 60.5008Z" fill="#FEC8CC"/>
<path d="M290.906 104.777C291.999 81.4052 273.741 61.5878 250.13 60.5008C237.042 59.901 225.066 65.1864 216.796 73.9893L232.996 71.1404L238.608 102.141C241.582 98.305 246.342 95.9246 251.594 96.162C260.117 96.5556 266.708 103.709 266.31 112.143C265.957 119.722 260.313 127.962 252.939 128.824C252.939 128.824 255.692 144.031 255.774 144.493C274.991 141.07 289.972 124.895 290.913 104.777H290.906Z" fill="#2D2D2D"/>
<path d="M94.7254 132.172C95.9238 131.193 96.4608 129.632 96.116 128.133L93.0013 114.551C92.3343 111.245 94.2562 107.961 97.4896 106.893C101.226 105.662 105.228 107.838 106.183 111.614L112.729 132.675C113.86 137.151 114.476 141.732 114.566 146.336C114.606 148.361 114.775 150.375 115.013 152.389L116.816 167.526L122.689 194.925L98.0774 202.539L91.6447 176.661L78.7057 153.569C76.5633 150.168 77.5412 145.693 80.9102 143.472L94.7254 132.178V132.172Z" fill="#FEC8CC"/>
<path d="M191.09 180.167L140.098 227.886L129.442 184.834C129.113 183.497 127.775 182.653 126.411 182.916L88.3177 190.294C86.8972 190.569 85.9818 191.937 86.2659 193.337L99.1511 255.888C104.214 280.459 134.309 290.324 153.185 273.6L213.18 220.464L191.083 180.167H191.09Z" fill="#292929"/>
<path d="M220.922 265.209C220.411 265.209 212.507 267.69 208.289 269.02C206.882 269.464 206.149 270.994 206.686 272.356L220.171 306.437C220.606 307.543 221.762 308.199 222.949 308.018L267.728 301.158C284.047 298.659 293.77 281.784 287.633 266.609L251.143 176.412L200.076 195.655L220.928 265.203L220.922 265.209Z" fill="#285FE8"/>
<path d="M245.07 302.395C285.689 302.395 318.618 269.808 318.618 229.611C318.618 189.413 285.689 156.826 245.07 156.826C204.45 156.826 171.521 189.413 171.521 229.611C171.521 269.808 204.45 302.395 245.07 302.395Z" fill="#292929"/>
<path d="M230.207 141.339L240.769 192.232L258.017 157.97L255.479 143.038L230.207 141.339Z" fill="#FEC8CC"/>
<path d="M250.585 227.992L171.915 255.515C168.756 256.621 167.1 260.051 168.217 263.177L210.607 381.839C211.724 384.965 215.191 386.604 218.35 385.498L297.02 357.975C300.179 356.87 301.834 353.439 300.718 350.313L258.327 231.652C257.21 228.525 253.744 226.887 250.585 227.992Z" fill="#E8E8E8"/>
<path d="M267.032 304.54L232.29 311.739C227.735 312.681 222.99 312.207 218.719 310.375L195.212 300.303C192.908 299.314 190.257 299.506 188.122 300.818C185.018 302.723 183.703 306.528 184.976 309.912L185.197 310.505L177.223 313.535C172.599 315.289 170.727 320.776 173.33 324.945L183.324 340.967C186.417 345.923 192.382 348.349 198.105 346.974L221.575 341.342C223.138 340.967 224.721 340.665 226.315 340.442L278.173 333.17L267.022 304.535L267.032 304.54Z" fill="#FEC8CC"/>
<path d="M280.221 294.935C279.672 294.935 239.358 305.211 234.876 306.629C233.373 307.104 232.59 308.735 233.165 310.184L247.533 346.495C248.001 347.67 249.225 348.37 250.488 348.176L330.089 333.233C347.475 330.572 357.835 312.591 351.295 296.422L312.412 200.322L257.999 220.826L280.215 294.929L280.221 294.935Z" fill="#292929"/>
<path d="M233.224 157.526C233.224 157.526 240.957 166.223 258.016 157.969L240.768 192.231L233.224 157.526Z" fill="#E8E8E8"/>
</g>
<rect x="3.04871" y="18.9487" width="23.5201" height="24.9901" fill="#4D4D4D"/>
<rect x="3.04871" y="55.5842" width="23.5201" height="23.5201" fill="#222222"/>
<path d="M1.99974 21.8754L12.1375 34.7276L34.9179 8.66162" stroke="#FF0F00" stroke-width="4.61378"/>
<rect x="34.9181" y="23.1865" width="67.082" height="5.88003" fill="#4D4D4D"/>
<rect x="34.9182" y="33.8213" width="38.0135" height="5.88003" fill="#4D4D4D"/>
<rect x="34.9181" y="59.2739" width="67.082" height="5.88003" fill="#333333"/>
<rect x="34.9182" y="69.9084" width="38.0135" height="5.88003" fill="#333333"/>
<defs>
<clipPath id="clip0_1_962">
<rect width="322" height="352.323" fill="white" transform="translate(32)"/>
</clipPath>
</defs>
</svg>
