<svg width="836" height="242" viewBox="0 0 836 242" fill="none" xmlns="http://www.w3.org/2000/svg">
<rect x="20" y="22" width="796" height="220" fill="#E6E6E6"/>
<path d="M380.223 48.2734V61H377.92V50.5059H377.85L374.879 52.4043V50.3125L378.025 48.2734H380.223ZM384.82 59.752L383.343 64.6738H381.673L382.587 59.752H384.82ZM386.885 61V59.3477L391.385 55.0059C392.669 53.7227 393.337 52.9668 393.337 51.8945C393.337 50.708 392.396 49.9609 391.157 49.9609C389.847 49.9609 389.004 50.7783 389.012 52.0703H386.833C386.824 49.6621 388.634 48.0977 391.175 48.0977C393.776 48.0977 395.525 49.6533 395.534 51.7891C395.525 53.2217 394.84 54.3818 392.335 56.7461L390.067 58.9961V59.084H395.727V61H386.885ZM400.553 55.7266V57.5547H407.602V55.7266H409.535V62.3711H398.637V55.7266H400.553ZM396.844 54.5488V52.9844H407.268C407.602 51.3057 407.637 50.04 407.637 48.9238H398.637V47.3594H409.588V48.5898C409.597 49.8027 409.597 51.1211 409.201 52.9844H411.363V54.5488H396.844ZM400.553 60.7891H407.602V59.0664H400.553V60.7891ZM423.106 56.6055C426.56 56.6143 428.74 57.7041 428.749 59.5938C428.74 61.4395 426.56 62.5469 423.106 62.5469C419.687 62.5469 417.481 61.4395 417.481 59.5938C417.481 57.7041 419.687 56.6143 423.106 56.6055ZM415.987 55.4629V53.8809H421.577V50.998H423.511V53.8809H430.401V55.4629H415.987ZM417.639 48.9766V47.4297H428.643V48.748C428.652 50.0049 428.652 51.3408 428.204 52.9668L426.27 52.791C426.666 51.2529 426.692 50.1279 426.692 48.9766H417.639ZM419.45 59.5938C419.432 60.5254 420.812 61.0352 423.106 61.0352C425.409 61.0352 426.798 60.5254 426.815 59.5938C426.798 58.627 425.409 58.082 423.106 58.082C420.812 58.082 419.432 58.627 419.45 59.5938ZM435.561 47.377C437.617 47.3682 439.235 48.5547 439.63 50.2949H442.504V46.6738H444.455V55.1992H442.504V51.877H439.648C439.27 53.6611 437.635 54.8652 435.561 54.8652C433.126 54.8652 431.36 53.3008 431.36 51.1035C431.36 48.9326 433.126 47.3682 435.561 47.377ZM433.223 51.1035C433.223 52.3779 434.19 53.2217 435.561 53.2129C436.897 53.2217 437.855 52.3779 437.863 51.1035C437.855 49.8291 436.897 49.0029 435.561 49.0117C434.19 49.0029 433.223 49.8291 433.223 51.1035ZM433.979 62.3711V55.9375H435.912V57.625H442.504V55.9375H444.455V62.3711H433.979ZM435.912 60.7891H442.504V59.1367H435.912V60.7891ZM452.023 50.4883C452.005 53.3271 453.429 56.1924 455.89 57.3789L454.695 58.9434C452.972 58.0732 451.733 56.3945 451.056 54.373C450.362 56.5352 449.061 58.3281 447.242 59.2422L446.046 57.6777C448.604 56.4648 450.063 53.4238 450.072 50.4883V47.957H452.023V50.4883ZM456.839 62.5645V46.6738H458.791V52.8965H461.234V54.5664H458.791V62.5645H456.839Z" fill="#555555"/>
<rect x="68" y="87" width="220" height="155" fill="#333333"/>
<rect x="308" y="87" width="220" height="155" fill="#333333"/>
<rect x="548" y="87" width="220" height="155" fill="#333333"/>
<rect width="836" height="22" transform="matrix(1 0 0 -1 0 22)" fill="#333333"/>
</svg>
