<svg width="230" height="97" viewBox="0 0 230 97" fill="none" xmlns="http://www.w3.org/2000/svg">
<g id="Group 14285">
<path id="Vector" d="M214.443 96.8418H202.348C200.469 96.8418 198.684 96.2519 197.052 95.2018C195.42 94.1518 193.964 92.6298 192.731 90.742C191.498 88.8542 190.5 86.6125 189.819 84.123C189.138 81.6336 188.75 78.8963 188.75 76.0175C188.75 73.1386 189.126 70.4014 189.819 67.9119C190.511 65.4224 191.498 63.1807 192.731 61.2929C193.964 59.4052 195.432 57.8832 197.052 56.8331C198.673 55.783 200.469 55.1931 202.348 55.1931H214.443C212.564 55.1931 210.779 55.7712 209.147 56.8213C207.515 57.8714 206.059 59.4052 204.826 61.2811C203.593 63.1571 202.595 65.4106 201.913 67.9001C201.232 70.3896 200.845 73.1386 200.845 76.0057C200.845 78.8845 201.221 81.6218 201.913 84.1112C202.606 86.6007 203.593 88.8424 204.826 90.7302C206.059 92.618 207.526 94.14 209.147 95.19C210.767 96.2401 212.564 96.83 214.443 96.83V96.8418Z" fill="#262626"/>
<path id="Vector_2" d="M122.179 96.8418H109.098C107.066 96.8418 105.129 96.2519 103.379 95.2018C101.629 94.1518 100.032 92.6298 98.7055 90.742C97.3786 88.8542 96.2982 86.6125 95.5585 84.123C94.8187 81.6336 94.4077 78.8963 94.4077 76.0175C94.4077 73.1386 94.8187 70.4014 95.5585 67.9119C96.2982 65.4224 97.3786 63.1807 98.7055 61.2929C100.032 59.4052 101.618 57.8832 103.379 56.8331C105.14 55.783 107.078 55.1931 109.098 55.1931H122.179C120.147 55.1931 118.21 55.7712 116.46 56.8213C114.71 57.8714 113.113 59.4052 111.787 61.2811C110.46 63.1571 109.379 65.4106 108.64 67.9001C107.9 70.3896 107.489 73.1386 107.489 76.0057C107.489 78.8727 107.9 81.6218 108.64 84.1112C109.379 86.6007 110.46 88.8424 111.787 90.7302C113.113 92.618 114.699 94.14 116.46 95.19C118.221 96.2401 120.147 96.83 122.179 96.83V96.8418Z" fill="#363636"/>
<path id="Vector_3" d="M33.9913 96.8418H21.8965C20.0177 96.8418 18.2328 96.2519 16.6006 95.2018C14.9684 94.1518 13.5124 92.6298 12.2794 90.742C11.0464 88.8542 10.0483 86.6125 9.36727 84.123C8.68621 81.6336 8.29871 78.8963 8.29871 76.0175C8.29871 73.1386 8.67447 70.4014 9.36727 67.9119C10.0601 65.4224 11.0464 63.1807 12.2794 61.2929C13.5124 59.4052 14.9802 57.8832 16.6006 56.8331C18.2211 55.783 20.0177 55.1931 21.8965 55.1931H33.9913C32.1125 55.1931 30.3276 55.7712 28.6954 56.8213C27.0632 57.8714 25.6071 59.4052 24.3742 61.2811C23.1412 63.1571 22.1431 65.4106 21.462 67.9001C20.781 70.3896 20.3935 73.1386 20.3935 76.0057C20.3935 78.8727 20.7692 81.6218 21.462 84.1112C22.1548 86.6007 23.1412 88.8424 24.3742 90.7302C25.6071 92.618 27.0749 94.14 28.6954 95.19C30.3159 96.2401 32.1125 96.83 33.9913 96.83V96.8418Z" fill="#363636"/>
<path id="Vector_4" d="M33.9916 55.1931C35.8704 55.1931 37.6552 55.783 39.2875 56.8331C40.9197 57.8832 42.3757 59.417 43.6087 61.2929C44.8416 63.1689 45.828 65.4224 46.5208 67.9119C47.2136 70.4014 47.5894 73.1386 47.5894 76.0175C47.5894 78.8963 47.2136 81.6336 46.5208 84.123C45.828 86.6125 44.8416 88.8542 43.6087 90.742C42.3757 92.6298 40.9197 94.1518 39.2875 95.2018C37.6552 96.2519 35.8704 96.8418 33.9916 96.8418C32.1128 96.8418 30.3279 96.2637 28.6957 95.2018C27.0635 94.14 25.6075 92.618 24.3745 90.742C23.1415 88.866 22.1434 86.6125 21.4624 84.123C20.7813 81.6336 20.3938 78.8845 20.3938 76.0175C20.3938 73.1504 20.7696 70.4014 21.4624 67.9119C22.1552 65.4224 23.1415 63.1807 24.3745 61.2929C25.6075 59.4052 27.0753 57.8832 28.6957 56.8331C30.3162 55.783 32.1128 55.1931 33.9916 55.1931Z" fill="#363636"/>
<path id="Vector_5" d="M214.443 55.1931C216.322 55.1931 218.107 55.783 219.739 56.8331C221.371 57.8832 222.827 59.417 224.06 61.2929C225.293 63.1689 226.279 65.4224 226.972 67.9119C227.665 70.4014 228.041 73.1386 228.041 76.0175C228.041 78.8963 227.665 81.6336 226.972 84.123C226.279 86.6125 225.293 88.8542 224.06 90.742C222.827 92.6298 221.371 94.1518 219.739 95.2018C218.107 96.2519 216.322 96.8418 214.443 96.8418C212.564 96.8418 210.779 96.2637 209.147 95.2018C207.515 94.14 206.059 92.618 204.826 90.742C203.593 88.866 202.595 86.6125 201.914 84.123C201.233 81.6336 200.845 78.8845 200.845 76.0175C200.845 73.1386 201.221 70.4014 201.914 67.9119C202.607 65.4224 203.593 63.1807 204.826 61.2929C206.059 59.4052 207.527 57.8832 209.147 56.8331C210.768 55.783 212.564 55.1931 214.443 55.1931Z" fill="#262626"/>
<path id="Vector_6" d="M122.182 55.1931C124.214 55.1931 126.139 55.783 127.901 56.8331C129.662 57.8832 131.236 59.417 132.574 61.2929C133.913 63.1689 134.981 65.4224 135.721 67.9119C136.461 70.4014 136.872 73.1386 136.872 76.0175C136.872 78.8963 136.461 81.6336 135.721 84.123C134.981 86.6125 133.901 88.8542 132.574 90.742C131.247 92.6298 129.662 94.1518 127.901 95.2018C126.139 96.2519 124.214 96.8418 122.182 96.8418C120.151 96.8418 118.213 96.2637 116.464 95.2018C114.714 94.14 113.117 92.618 111.79 90.742C110.463 88.866 109.383 86.6125 108.643 84.123C107.903 81.6336 107.492 78.8845 107.492 76.0175C107.492 73.1504 107.903 70.4014 108.643 67.9119C109.383 65.4224 110.463 63.1807 111.79 61.2929C113.117 59.4052 114.702 57.8832 116.464 56.8331C118.225 55.783 120.151 55.1931 122.182 55.1931Z" fill="#363636"/>
<path id="Vector_7" d="M221.463 29.8384L212.821 26.2871L181.727 4.02329C178.075 1.40402 173.707 0 169.221 0H99.9286C95.0555 0 90.2763 1.29784 86.0608 3.75192L56.6224 20.9187C54.814 22.1458 52.8648 23.1369 50.8098 23.892L8.90092 39.1356C3.55809 41.0824 0.00012207 46.1793 0.00012207 51.8898V71.4753C0.00012207 78.1651 5.38992 83.5806 12.0479 83.5806H105.682C107.068 83.5806 108.137 82.3417 107.902 80.9731C107.62 79.3921 107.479 77.7403 107.479 76.0295C107.479 73.1507 107.89 70.4135 108.63 67.924C109.37 65.4345 110.45 63.1928 111.777 61.305C113.104 59.4173 114.689 57.8953 116.45 56.8452C118.212 55.7951 120.137 55.2052 122.169 55.2052C124.2 55.2052 126.126 55.7951 127.887 56.8452C129.649 57.8953 131.222 59.4291 132.561 61.305C133.888 63.1928 134.968 65.4345 135.708 67.924C136.448 70.4135 136.859 73.1507 136.859 76.0295C136.859 78.696 136.495 81.2445 135.849 83.5806H198.272C200.033 83.5806 201.36 82.0114 201.125 80.2652C200.937 78.8966 200.832 77.4808 200.832 76.0295C200.832 73.1507 201.208 70.4135 201.9 67.924C202.593 65.4345 203.58 63.1928 204.812 61.305C206.045 59.4173 207.513 57.8953 209.134 56.8452C210.766 55.7951 212.551 55.2052 214.43 55.2052C216.308 55.2052 218.093 55.7951 219.725 56.8452C221.346 57.8953 222.814 59.4291 224.047 61.305C225.28 63.1928 226.266 65.4345 226.959 67.924C227.652 70.4135 228.027 73.1507 228.027 76.0295C228.027 76.6549 228.004 77.2684 227.969 77.8701C229.19 77.1858 230 75.8762 230 74.4132V42.6398C230 37.0355 226.63 31.9857 221.463 29.862V29.8384Z" fill="black"/>
<path id="Vector_8" d="M92.6066 44.3174H58.4305V48.4209H88.71C90.8603 48.4209 92.6066 46.68 92.6066 44.5362V44.3174Z" fill="white"/>
<path id="Intersect" fill-rule="evenodd" clip-rule="evenodd" d="M2.29973 44.3174C1.46599 45.5624 0.83685 46.9469 0.449314 48.418H15.5181V44.3174H2.29973Z" fill="white"/>
</g>
</svg>
