<svg width="153" height="133" viewBox="0 0 153 133" fill="none" xmlns="http://www.w3.org/2000/svg">
<g clip-path="url(#clip0_1_823)">
<path d="M153 131.2C153 131.2 150.58 111.02 129.77 90.7499C115.3 78.8199 96.74 71.6599 76.51 71.6599C56.28 71.6599 37.7 78.8299 23.23 90.7599C2.42 111.04 0 131.2 0 131.2H25.82V214.9H127.17V131.2H152.99H153Z" fill="white"/>
<path fill-rule="evenodd" clip-rule="evenodd" d="M62.8999 32.9099H90.1099V72.5999L76.5099 91.7799L62.9099 72.5999V32.9099H62.8999Z" fill="#FFC4CB"/>
<path d="M104.19 36.5901C104.13 52.6701 91.6801 65.8601 76.5401 65.8701C63.1301 65.8901 51.9401 55.7801 49.3801 42.3401C49.0201 40.4501 48.8301 38.4801 48.8301 36.4701C48.8301 35.8201 48.8501 35.1801 48.8901 34.5401C49.8201 19.2001 61.8301 7.06006 76.5101 7.06006C88.0001 7.06006 97.8501 14.4901 102.04 25.0801C102.52 26.3101 102.94 27.5801 103.26 28.8901C103.88 31.3401 104.2 33.9201 104.19 36.5801V36.5901Z" fill="#FCC6CA"/>
<path d="M106.47 32.5601C107.52 21.8201 102.77 11.2201 93.81 5.19006C91.11 3.37006 85.29 1.28006 80.39 0.420062C67.43 -1.85994 54.17 5.45006 48.8 17.4501C46.71 22.1301 45.88 27.3401 46.74 32.5801L47.19 35.3301C47.19 35.3301 65.99 26.1801 71.93 13.4501C71.93 13.4501 81.59 30.1301 106.31 34.2301L106.47 32.5601Z" fill="#080407"/>
<path d="M56.7301 40.6799C57.1801 42.3099 56.9501 44.5599 56.4501 46.8599C55.3101 52.0399 48.9401 54.0399 45.0701 50.4099C43.1901 48.6399 41.5901 46.7099 41.1101 44.9799C39.7301 39.9899 42.1101 34.9799 46.4101 33.7899C50.7101 32.5999 55.3301 35.6799 56.7101 40.6799H56.7301Z" fill="#FCC6CA"/>
<path d="M96.2901 40.6799C95.8401 42.3099 96.0701 44.5599 96.5701 46.8599C97.7101 52.0399 104.08 54.0399 107.95 50.4099C109.83 48.6399 111.43 46.7099 111.91 44.9799C113.29 39.9899 110.91 34.9799 106.6 33.7899C102.29 32.5999 97.6801 35.6799 96.3001 40.6799H96.2901Z" fill="#FCC6CA"/>
<path fill-rule="evenodd" clip-rule="evenodd" d="M62.8701 65.45L53.8601 74.77L76.5101 91.77L62.8701 65.45Z" fill="white"/>
<path fill-rule="evenodd" clip-rule="evenodd" d="M90.16 65.45L99.16 74.77L76.51 91.77L90.16 65.45Z" fill="white"/>
<path fill-rule="evenodd" clip-rule="evenodd" d="M83.8044 96.9198L76.52 91.78L69.245 96.9198L72.3062 105.14L65.7114 167.345H87.3285L80.7433 105.14L83.8044 96.9198Z" fill="#666666"/>
</g>
<defs>
<clipPath id="clip0_1_823">
<rect width="153" height="214.9" fill="white"/>
</clipPath>
</defs>
</svg>
