<svg width="236" height="195" viewBox="0 0 236 195" fill="none" xmlns="http://www.w3.org/2000/svg">
<path d="M0 41.1483L118 0L236 41.1483V195H0V41.1483Z" fill="#E6E6E6"/>
<path d="M90.2715 43.5879V44.9062C90.2803 46.2422 90.2803 47.7803 89.9111 49.793H92.0469V51.3926H77.5273V49.793H87.9248C88.2939 47.877 88.3203 46.4619 88.3203 45.1699H79.3203V43.5879H90.2715ZM79.4082 58.2305V52.9043H81.3418V56.6484H90.7285V58.2305H79.4082ZM106.048 42.6738V58.582H104.097V50.4609H101.021V48.8789H104.097V42.6738H106.048ZM92.6888 54.0469C95.1673 52.9219 96.5736 50.2148 96.5736 47.7188V46.8926H93.1634V45.3281H96.5912V43.0078H98.5423V45.3281H101.865V46.8926H98.5248V47.7188C98.516 50.1182 99.9574 52.6846 102.462 53.8008L101.408 55.2949C99.597 54.5215 98.2699 52.9307 97.5668 51.0322C96.8724 53.0449 95.5629 54.7412 93.7435 55.5586L92.6888 54.0469ZM120.094 44.2383C120.085 49.0371 118.775 53.1592 112.922 56.0684L111.85 54.5918C114.601 53.2383 116.244 51.6475 117.167 49.7666L112.219 50.2324L111.973 48.5449L117.756 48.1846C117.958 47.4375 118.09 46.6553 118.151 45.8203H112.799V44.2383H120.094ZM122.326 58.5293V42.6738H124.277V48.8965H126.633V50.4961H124.277V58.5293H122.326ZM140.617 42.6738V54.5742H138.753V42.6738H140.617ZM126.923 50.9531C129.041 49.9248 130.035 47.8154 130.035 45.9258V43.7637H131.933V45.9258C131.933 47.7803 132.847 49.626 134.869 50.5312L133.779 52.043C132.443 51.4189 131.529 50.3467 131.001 49.0547C130.439 50.5137 129.446 51.7529 127.996 52.4297L126.923 50.9531ZM129.982 58.248V53.1504H131.933V56.666H141.056V58.248H129.982ZM133.445 48.0527V46.4531H135.572V42.9551H137.435V54.0996H135.572V48.0527H133.445ZM155.55 42.6738V58.582H153.616V50.0039H150.628V48.4219H153.616V42.6738H155.55ZM142.946 54.9258V44.0449H150.382V45.6445H144.915V48.4922H149.749V50.0391H144.915V53.3086C147.332 53.2998 149.142 53.2119 151.19 52.8867L151.384 54.4688C149.072 54.8203 147.033 54.9082 144.194 54.9258H142.946Z" fill="#888888"/>
<rect x="38" y="81" width="160" height="114" fill="#666666"/>
</svg>
