<svg width="122" height="35" viewBox="0 0 122 35" fill="none" xmlns="http://www.w3.org/2000/svg">
<g clip-path="url(#clip0_1_1057)">
<path d="M48.1633 19.9857C48.1633 15.4334 44.9389 11.6406 40.2283 11.6406C35.2645 11.6406 31.8818 15.2765 31.8818 19.9546C31.8818 24.6327 35.2645 28.2685 40.48 28.2685C43.3155 28.2685 45.3985 27.1796 46.8707 25.3468L46.817 25.4175C46.817 25.4175 47.7758 24.4036 47.8691 23.1096L44.5005 23.1025L44.4482 23.1775C43.6902 24.2834 42.409 25.1375 40.5111 25.1375C37.9826 25.1375 35.99 23.8733 35.4526 21.4069H48.0346C48.0982 20.9643 48.1604 20.458 48.1604 19.9843L48.1633 19.9857ZM35.4229 18.6267C35.8967 16.2551 37.6361 14.7377 40.1958 14.7377C42.2506 14.7377 44.2417 15.9072 44.7169 18.6267H35.4229Z" fill="white"/>
<path d="M27.5129 27.857H24.0708L27.083 12.0508H30.5251L27.5129 27.857Z" fill="white"/>
<path d="M21.4624 27.857H24.906L21.8938 12.0508H18.4517L21.4624 27.857Z" fill="white"/>
<path d="M15.8363 27.857H12.3928L15.405 12.0508H18.8485L15.8363 27.857Z" fill="white"/>
<path d="M9.74755 27.857H13.1897L10.1775 12.0508H6.73535L9.74755 27.857Z" fill="white"/>
<path d="M76.2859 19.9531C76.2859 24.6637 72.7137 28.2671 68.4146 28.2671C65.9483 28.2671 64.0844 27.2559 62.8823 25.6112V34.1783H59.4685V12.0507H62.8823V14.3261C64.083 12.6503 65.9483 11.6392 68.4146 11.6392C72.7137 11.6392 76.2859 15.275 76.2859 19.9531ZM72.8721 19.9531C72.8721 17.013 70.7225 14.8946 67.8772 14.8946C65.0319 14.8946 62.8823 17.013 62.8823 19.9531C62.8823 22.8932 65.0319 25.0116 67.8772 25.0116C70.7225 25.0116 72.8721 22.8932 72.8721 19.9531Z" fill="white"/>
<path d="M94.9382 12.0512V27.8575H91.5244V25.5821C90.3238 27.2579 88.4585 28.269 85.9922 28.269C81.6931 28.269 78.1208 24.6332 78.1208 19.9551C78.1208 15.277 81.6931 11.6411 85.9922 11.6411C88.4585 11.6411 90.3224 12.6523 91.5244 14.2969V12.0526H94.9382V12.0512ZM91.5244 19.9536C91.5244 17.0136 89.3749 14.8951 86.5295 14.8951C83.6842 14.8951 81.5347 17.0136 81.5347 19.9536C81.5347 22.8937 83.6842 25.0122 86.5295 25.0122C89.3749 25.0122 91.5244 22.8937 91.5244 19.9536Z" fill="white"/>
<path d="M98.9233 12.0513H102.337V27.8575H98.9233V12.0513Z" fill="white"/>
<path d="M106.319 12.0513H109.733V27.8575H106.319V12.0513Z" fill="white"/>
<path d="M102.337 6.88428H98.9233V10.2981H102.337V6.88428Z" fill="white"/>
<path d="M114.84 12.0513H109.319V15.4184H114.84V12.0513Z" fill="white"/>
<path d="M121 27.8566V1H1V27.8566" stroke="white" stroke-width="1.50552" stroke-miterlimit="10"/>
<path d="M53.4863 1.19775V27.8564" stroke="white" stroke-width="1.50552" stroke-miterlimit="10"/>
</g>
<defs>
<clipPath id="clip0_1_1057">
<rect width="122" height="35" fill="white"/>
</clipPath>
</defs>
</svg>
