<svg width="40" height="40" viewBox="0 0 40 40" fill="none" xmlns="http://www.w3.org/2000/svg">
<g id="Group 631858">
<rect id="Rectangle Copy" width="40" height="40" rx="20" fill="white"/>
<g id="Group 631743" opacity="0.8">
<path id="Line 30 (Stroke)" fill-rule="evenodd" clip-rule="evenodd" d="M26.9561 13.0439C27.5324 13.6202 27.5324 14.5545 26.9561 15.1308L15.1303 26.9565C14.5541 27.5328 13.6197 27.5328 13.0434 26.9565C12.4672 26.3803 12.4672 25.4459 13.0434 24.8696L24.8692 13.0439C25.4455 12.4676 26.3798 12.4676 26.9561 13.0439Z" fill="black"/>
<path id="Line 31 (Stroke)" fill-rule="evenodd" clip-rule="evenodd" d="M27.088 26.9561C26.5117 27.5324 25.5773 27.5324 25.0011 26.9561L13.1753 15.1303C12.599 14.5541 12.599 13.6197 13.1753 13.0434C13.7516 12.4672 14.6859 12.4672 15.2622 13.0434L27.088 24.8692C27.6642 25.4455 27.6642 26.3798 27.088 26.9561Z" fill="black"/>
</g>
</g>
</svg>
