<svg width="20" height="20" viewBox="0 0 20 20" fill="none" xmlns="http://www.w3.org/2000/svg">
<g id="Group 631479">
<g id="Rectangle 1483576">
<mask id="path-1-inside-1_31_1007" fill="white">
<rect width="20" height="20" rx="1.25"/>
</mask>
<rect width="20" height="20" rx="1.25" stroke="#284733" stroke-width="4" mask="url(#path-1-inside-1_31_1007)"/>
</g>
<path id="5" d="M9.295 15.0275C7.4575 15.0275 6.355 14.1219 6.25 12.6912C6.39437 12.2975 6.73563 12.1006 7.10313 12.1006C7.64125 12.1006 7.95625 12.3894 8.035 13.1637L8.245 14.6075L7.79875 14.2794C8.20563 14.4894 8.44187 14.5681 8.91438 14.5681C10.1219 14.5681 10.9225 13.6888 10.9225 12.0219C10.9225 10.5125 10.1481 9.65938 8.9275 9.65938C8.42875 9.65938 7.99563 9.73813 7.53625 9.8825L7.1425 9.62L7.4575 5H12.8256V6.6275H7.73313L8.07438 5.42L7.78563 9.5675L7.23438 9.39688C7.99563 9.06875 8.74375 8.95063 9.58375 8.95063C11.8019 8.95063 13.1669 9.97438 13.1669 11.93C13.1669 13.9513 11.5394 15.0275 9.295 15.0275Z" fill="#284733"/>
</g>
</svg>
