<svg width="20" height="20" viewBox="0 0 20 20" fill="none" xmlns="http://www.w3.org/2000/svg">
<g id="Group 631476">
<g id="Rectangle 1483576">
<mask id="path-1-inside-1_31_992" fill="white">
<rect width="20" height="20" rx="1.25"/>
</mask>
<rect width="20" height="20" rx="1.25" stroke="#284733" stroke-width="4" mask="url(#path-1-inside-1_31_992)"/>
</g>
<path id="2" d="M6.90125 15.0275V13.8463C7.6625 13.0194 8.3975 12.1925 9.04063 11.4575C10.4713 9.84313 11.1144 8.97688 11.1144 7.54625C11.1144 6.2075 10.4975 5.44625 9.48688 5.44625C9.11938 5.44625 8.72563 5.53813 8.33188 5.72188L8.98813 5.43313L8.7125 6.85063C8.56812 7.74313 8.135 7.95313 7.72813 7.95313C7.3475 7.95313 7.01937 7.73 6.875 7.38875C6.95375 5.82688 8.47625 5 10.2219 5C12.2956 5 13.2538 6.11563 13.2538 7.6775C13.2538 9.095 12.0463 10.1188 9.605 12.035C9.11938 12.4288 8.3975 13.0325 7.68875 13.6494L7.84625 13.1506V13.4131H13.49V15.0275H6.90125Z" fill="#284733"/>
</g>
</svg>
