<svg width="28" height="28" viewBox="0 0 28 28" fill="none" xmlns="http://www.w3.org/2000/svg">
<g id="Group 631323" opacity="0.8">
<path id="2" d="M10.5331 19.2098V17.7753L14.4401 14.0056C15.5542 12.8915 16.1341 12.2353 16.1341 11.3043C16.1341 10.2742 15.3176 9.62555 14.2417 9.62555C13.1047 9.62555 12.3721 10.3352 12.3798 11.4569H10.4873C10.4797 9.3661 12.0516 8.00781 14.257 8.00781C16.5157 8.00781 18.0342 9.35847 18.0418 11.2128C18.0342 12.4566 17.439 13.4638 15.2642 15.5165L13.2955 17.47V17.5463H18.2097V19.2098H10.5331Z" fill="black"/>
<path id="Rectangle 1483453 (Stroke)" fill-rule="evenodd" clip-rule="evenodd" d="M0 0H28V28H0V0ZM1.95349 1.95349V26.0465H26.0465V1.95349H1.95349Z" fill="black"/>
</g>
</svg>
