<svg width="271" height="112" viewBox="0 0 271 112" fill="none" xmlns="http://www.w3.org/2000/svg">
<g filter="url(#filter0_f_4782_18234)">
<rect x="25" y="22" width="226" height="70" rx="15" fill="#64A1D9" fill-opacity="0.05"/>
</g>
<rect x="9" y="3" width="226" height="70" rx="20" fill="#E9EBF1"/>
<path d="M0 0.407795C10.4113 -1.56747 18.338 4.11142 21 7.19777L20.7042 16.4568C17.8451 15.8396 11.6535 15.284 9.76056 18C10.0563 6.88913 2.07042 1.3337 0 0.407795Z" fill="#E9EBF1"/>
<path d="M38.784 18.784L37.136 18.768V22.224H34.128V19.52H32.512V21.552H29.104V19.504H27.472V26.208H34.128V23.568H37.136V26.704H38.784V18.784ZM32.512 22.832V24.864H29.104V22.832H32.512ZM37.136 27.36V28.896H31.024V27.36H29.392V33.04H38.784V27.36H37.136ZM37.136 30.192V31.712H31.024V30.192H37.136ZM53.3588 29.28V18.784H51.7108V29.28H53.3588ZM49.3908 23.36C49.3908 21.232 47.7428 19.744 45.5668 19.744C43.3908 19.744 41.7268 21.232 41.7268 23.36C41.7268 25.456 43.3908 26.976 45.5668 26.976C47.7428 26.976 49.3908 25.456 49.3908 23.36ZM43.3428 23.36C43.3428 22.016 44.2868 21.168 45.5668 21.168C46.8308 21.168 47.7908 22.016 47.7908 23.36C47.7908 24.672 46.8308 25.552 45.5668 25.552C44.2868 25.552 43.3428 24.672 43.3428 23.36ZM53.7748 31.616H45.5828V28.224H43.9188V32.96H53.7748V31.616ZM66.4135 22.512V26.192H68.0615V18.768H66.4135V21.184H63.4855V22.512H66.4135ZM63.7575 25.952L64.6215 24.672C62.4615 23.952 61.2135 22.288 61.2135 20.448V19.232H59.5655V20.448C59.5655 22.432 58.3015 24.256 56.0455 24.976L56.8935 26.272C58.6215 25.68 59.7895 24.544 60.4295 23.008C61.0535 24.352 62.1575 25.424 63.7575 25.952ZM68.5575 31.76H60.3175V30.528H68.0615V26.88H58.6535V28.16H66.4295V29.312H58.6855V33.056H68.5575V31.76ZM82.6362 18.784H80.9882V26.768H82.6362V18.784ZM79.6762 26.064L79.4842 24.72C77.3882 25.056 75.5962 25.152 73.1002 25.152V23.552H78.0442V19.456H71.4362V20.8H76.4282V22.304H71.4682V26.496H72.6842C75.4522 26.496 77.4202 26.448 79.6762 26.064ZM81.0042 27.44V28.928H74.8122V27.44H73.1642V33.056H82.6362V27.44H81.0042ZM81.0042 30.224V31.728H74.8122V30.224H81.0042ZM85.483 29.968L84.875 33.296H86.347L87.371 29.968H85.483ZM105.315 30.144H99.5706V26.736H103.843V25.408H95.4746V21.2H103.715V19.872H93.8266V26.736H97.9226V30.144H92.2266V31.504H105.315V30.144ZM119.185 18.768H117.617V24.48H115.905V19.072H114.353V32.512H115.905V25.824H117.617V33.216H119.185V18.768ZM108.961 28.432V21.84H112.689V20.496H107.345V29.792H108.305C110.353 29.792 111.825 29.728 113.569 29.392L113.425 28.032C111.937 28.336 110.625 28.416 108.961 28.432ZM133.824 18.784H132.256V33.232H133.824V18.784ZM129.344 19.072V24.384H127.392V25.728H129.344V32.528H130.896V19.072H129.344ZM125.84 23.2V22.688H128.32V21.328H125.84V19.28H124.272V21.328H121.776V22.688H124.272V23.2C124.272 25.504 123.328 27.984 121.328 29.136L122.272 30.384C123.68 29.568 124.56 28.16 125.072 26.432C125.6 28.032 126.528 29.312 127.888 30.064L128.8 28.832C126.816 27.76 125.84 25.456 125.84 23.2ZM151.641 18.768H149.977V24.16H147.161C146.953 21.52 145.465 19.84 143.529 19.84C141.401 19.84 139.881 21.824 139.881 24.928C139.881 28.064 141.401 30.032 143.529 30.032C145.497 30.032 147.001 28.304 147.177 25.504H149.977V33.264H151.641V18.768ZM143.529 28.56C142.297 28.56 141.449 27.248 141.449 24.928C141.449 22.672 142.297 21.328 143.529 21.328C144.809 21.328 145.625 22.672 145.625 24.928C145.625 27.248 144.809 28.56 143.529 28.56ZM164.76 21.696H162.488V22.944H164.76V26.48H166.408V18.784H164.76V21.696ZM163.608 25.216L163.48 23.92C162.568 24.128 161.784 24.192 160.632 24.208V20.736H163.032V19.44H159.016V25.504H159.752C161.496 25.504 162.44 25.472 163.608 25.216ZM158.568 25.232L158.424 23.936C157.608 24.112 156.888 24.176 156.2 24.192V20.736H158.28V19.44H154.568V25.504H155.24C156.328 25.504 157.288 25.488 158.568 25.232ZM166.616 27.312H162.232V26.032H160.568V27.312H156.184V28.576H166.616V27.312ZM161.384 29.136C158.696 29.136 157.24 29.856 157.24 31.2C157.24 32.544 158.696 33.248 161.384 33.248C164.088 33.248 165.528 32.544 165.528 31.2C165.528 29.856 164.088 29.136 161.384 29.136ZM161.384 32.112C159.848 32.112 158.984 31.824 158.984 31.2C158.984 30.576 159.848 30.272 161.384 30.272C162.92 30.272 163.784 30.576 163.784 31.2C163.784 31.824 162.92 32.112 161.384 32.112ZM181.27 18.784H179.686V33.232H181.27V18.784ZM176.662 19.136V24.528H174.534C174.966 23.296 175.142 21.968 175.142 20.56H169.526V21.888H173.51C173.27 24.848 171.846 27.216 168.838 29.008L169.782 30.176C171.782 28.96 173.158 27.52 174.006 25.856H176.662V32.544H178.214V19.136H176.662ZM38.704 41.768H37.04V56.264H38.704V41.768ZM32.144 45.352V42.984H30.496V45.352C30.496 48.12 28.992 50.92 26.688 51.944L27.664 53.32C29.408 52.472 30.688 50.792 31.344 48.664C32 50.664 33.264 52.216 34.928 53L35.888 51.688C33.616 50.664 32.144 48.024 32.144 45.352ZM54.7828 46.824V45.464H52.7348V41.768H51.0868V50.488H52.7348V46.824H54.7828ZM49.1028 49.912L49.9508 48.648C47.7268 47.928 46.5268 46.136 46.5268 44.312V44.056H49.5508V42.712H41.7908V44.056H44.8628V44.312C44.8628 46.28 43.5988 48.136 41.3108 48.904L42.1748 50.2C43.9028 49.608 45.0708 48.44 45.7108 46.904C46.3348 48.312 47.4868 49.384 49.1028 49.912ZM43.2308 51.192V52.52H51.0868V56.232H52.7348V51.192H43.2308ZM68.3975 41.784H66.8295V47.768H65.2935V42.088H63.7575V55.56H65.2935V49.128H66.8295V56.232H68.3975V41.784ZM60.4295 44.136V42.2H58.7975V44.136H56.0615V45.464H63.1335V44.136H60.4295ZM59.6135 46.28C57.7735 46.28 56.4775 47.64 56.4775 49.64C56.4775 51.624 57.7735 53 59.6135 53C61.4535 53 62.7495 51.624 62.7495 49.64C62.7495 47.64 61.4535 46.28 59.6135 46.28ZM59.6135 51.624C58.6375 51.624 57.9495 50.856 57.9495 49.64C57.9495 48.424 58.6375 47.64 59.6135 47.64C60.5895 47.64 61.2775 48.424 61.2775 49.64C61.2775 50.856 60.5895 51.624 59.6135 51.624ZM81.9162 46.664H84.0922V45.304H81.9162V41.784H80.2682V56.248H81.9162V50.936H84.0922V49.576H81.9162V46.664ZM74.5722 42.84C72.4122 42.84 70.8602 44.824 70.8602 47.928C70.8602 51.064 72.4122 53.032 74.5722 53.032C76.7322 53.032 78.2842 51.064 78.2842 47.928C78.2842 44.824 76.7322 42.84 74.5722 42.84ZM74.5722 51.56C73.2922 51.56 72.4442 50.248 72.4442 47.928C72.4442 45.672 73.2922 44.328 74.5722 44.328C75.8522 44.328 76.7002 45.672 76.7002 47.928C76.7002 50.248 75.8522 51.56 74.5722 51.56ZM102.309 48.968V47.592H100.085V41.784H98.4211V56.248H100.085V48.968H102.309ZM93.8771 44.008V41.992H92.2291V44.008H88.7891V45.352H97.2531V44.008H93.8771ZM93.0771 46.376C90.9811 46.376 89.4931 47.768 89.4931 49.752C89.4931 51.736 90.9811 53.128 93.0771 53.128C95.1251 53.128 96.6611 51.736 96.6611 49.752C96.6611 47.768 95.1251 46.376 93.0771 46.376ZM93.0771 51.768C91.9091 51.768 91.0611 50.968 91.0611 49.752C91.0611 48.536 91.9091 47.736 93.0771 47.736C94.2451 47.736 95.0931 48.536 95.0931 49.752C95.0931 50.968 94.2451 51.768 93.0771 51.768ZM116.884 48.776V47.416H114.692V41.784H113.044V56.232H114.692V48.776H116.884ZM105.652 51.256V43.192H104.004V52.632H105.204C107.396 52.632 109.62 52.488 112.068 51.992L111.876 50.632C109.684 51.08 107.652 51.24 105.652 51.256ZM131.235 53.112H128.147V49.352C129.299 48.696 129.987 47.672 129.987 46.392C129.987 44.088 127.747 42.616 124.675 42.616C121.587 42.616 119.363 44.088 119.363 46.392C119.363 47.672 120.051 48.712 121.203 49.352V53.112H118.147V54.456H131.235V53.112ZM124.675 43.912C126.851 43.912 128.371 44.872 128.371 46.392C128.371 47.928 126.851 48.888 124.675 48.888C122.483 48.888 120.963 47.928 120.963 46.392C120.963 44.872 122.483 43.912 124.675 43.912ZM122.851 53.112V49.976C123.411 50.104 124.019 50.168 124.675 50.168C125.315 50.168 125.939 50.104 126.499 49.96V53.112H122.851ZM135.073 51.768H136.705C136.449 48.456 139.169 49.24 139.169 46.04C139.169 44.44 138.033 42.68 136.065 42.68C135.249 42.68 132.785 43.064 132.609 46.456H134.193C134.305 44.856 134.929 44.344 135.905 44.344C136.673 44.344 137.425 44.68 137.425 46.136C137.425 48.456 134.737 47.704 135.073 51.768ZM136.801 53.224H134.913V55.208H136.801V53.224Z" fill="#454F5D"/>
<defs>
<filter id="filter0_f_4782_18234" x="5" y="2" width="266" height="110" filterUnits="userSpaceOnUse" color-interpolation-filters="sRGB">
<feFlood flood-opacity="0" result="BackgroundImageFix"/>
<feBlend mode="normal" in="SourceGraphic" in2="BackgroundImageFix" result="shape"/>
<feGaussianBlur stdDeviation="10" result="effect1_foregroundBlur_4782_18234"/>
</filter>
</defs>
</svg>
