<svg viewBox="0 0 271 112" fill="none" xmlns="http://www.w3.org/2000/svg"><g filter="url(#a)"><rect x="25" y="22" width="226" height="70" rx="15" fill="#64A1D9" fill-opacity=".05"/></g><rect x="9" y="3" width="226" height="70" rx="20" fill="#E9EBF1"/><path d="M0 .408c10.411-1.975 18.338 3.703 21 6.79l-.296 9.259c-2.859-.617-9.05-1.173-10.943 1.543C10.056 6.89 2.07 1.334 0 .408Z" fill="#E9EBF1"/><path d="M39.04 26.416v-7.632h-1.568v7.632h1.568Zm-4.4-3.792v3.68h1.552V19.04H34.64v2.24h-1.968v1.344h1.968Zm-1.6 3.328.848-1.264c-1.792-.72-2.672-2.32-2.672-4.048v-1.28h-1.6v1.232c0 1.76-.944 3.664-2.88 4.528l.912 1.248c1.344-.64 2.256-1.76 2.768-3.12.496 1.216 1.344 2.144 2.624 2.704Zm6.528 5.856h-8.512v-1.216h7.984v-3.584h-9.648v1.28h8.032v1.088h-8v3.728h10.144v-1.296Zm5.087-10.336v4.72h-2.08v1.344h10.784v-1.344h-2.096v-4.72h2.128v-1.328H42.527v1.328h2.128Zm4.976 0v4.72h-3.328v-4.72h3.328Zm4.928 8.624h-13.12v1.36h13.12v-1.36Zm17-11.312-1.647-.016v3.456h-3.008V19.52h-1.616v2.032H61.88v-2.048h-1.632v6.704h6.656v-2.64h3.008v3.136h1.648v-7.92Zm-6.271 4.048v2.032H61.88v-2.032h3.408Zm4.624 4.528v1.536H63.8V27.36h-1.632v5.68h9.392v-5.68h-1.648Zm0 2.832v1.52H63.8v-1.52h6.112Zm16.222-.912V18.784h-1.648V29.28h1.648Zm-3.968-5.92c0-2.128-1.648-3.616-3.824-3.616s-3.84 1.488-3.84 3.616c0 2.096 1.664 3.616 3.84 3.616s3.824-1.52 3.824-3.616Zm-6.048 0c0-1.344.944-2.192 2.224-2.192 1.264 0 2.224.848 2.224 2.192 0 1.312-.96 2.192-2.224 2.192-1.28 0-2.224-.88-2.224-2.192Zm10.432 8.256h-8.192v-3.392h-1.664v4.736h9.856v-1.344Zm13.887-7.28v-1.328h-8.304v-2.4h8.208V19.28h-9.84v5.056h9.936Zm1.504 1.2H88.885v1.36h13.056v-1.36Zm-6.576 2.432c-3.088 0-4.976.96-4.976 2.624 0 1.68 1.888 2.64 4.976 2.64 3.184 0 4.976-.96 4.976-2.64 0-1.664-1.872-2.624-4.976-2.624Zm0 3.984c-2.128 0-3.296-.464-3.296-1.36 0-.896 1.168-1.36 3.296-1.36s3.312.464 3.312 1.36c0 .896-1.184 1.36-3.312 1.36Zm20.063-13.168h-1.648v14.448h1.648V18.784Zm-4.256 1.52h-6.848v1.344h5.152c-.272 3.328-2.08 5.856-5.872 7.696l.88 1.312c4.96-2.4 6.688-6.048 6.688-10.352Zm23.913 5.664v-1.376h-2.224v-5.808h-1.664v14.464h1.664v-7.28h2.224Zm-8.432-4.96v-2.016h-1.648v2.016h-3.44v1.344h8.464v-1.344h-3.376Zm-.8 2.368c-2.096 0-3.584 1.392-3.584 3.376s1.488 3.376 3.584 3.376c2.048 0 3.584-1.392 3.584-3.376s-1.536-3.376-3.584-3.376Zm0 5.392c-1.168 0-2.016-.8-2.016-2.016s.848-2.016 2.016-2.016c1.168 0 2.016.8 2.016 2.016s-.848 2.016-2.016 2.016Zm23.87-3.072v-1.36h-2.256v-5.568h-1.648v14.48h1.648v-7.552h2.256Zm-11.216 2.624v-6.832h5.072v-1.344h-6.72v9.552h1.184c2.608 0 4.576-.096 6.752-.48l-.176-1.36c-2 .336-3.808.464-6.112.464Zm25.791-2.464V24.48h-2.192v-5.712h-1.648v14.448h1.648v-7.36h2.192Zm-5.968-5.552h-6.704v1.344h5.056c-.336 3.312-2.272 5.872-5.776 7.68l.912 1.264c4.72-2.384 6.512-6.096 6.512-10.288ZM34.128 48.744V46.2h2.992v3.04h1.664v-7.456H37.12v3.088h-2.992v-2.448h-1.616v1.872h-3.408v-1.872h-1.632v6.32h6.656Zm-1.616-3.168v1.856h-3.408v-1.856h3.408Zm6.752 9.184h-8.24v-1.248h7.76V49.88h-9.408v1.28h7.776v1.152h-7.76v3.744h9.872V54.76Zm14.415-12.976H52.03v5.072h-2.208v1.408h2.208v7.968h1.648V41.784Zm-4.784 4.112v-2.88H47.31v2.88c0 1.584-.176 3.616-1.2 5.056-1.008-1.472-1.216-3.52-1.216-5.056v-2.88h-1.552v2.88c0 2.064-.368 4.56-2.16 5.92l1.072 1.152c.96-.752 1.536-1.904 1.872-3.2.336 1.36.96 2.592 1.984 3.376 1.04-.784 1.632-1.984 2-3.392.336 1.344.912 2.512 1.936 3.264l1.008-1.2c-1.792-1.36-2.16-3.824-2.16-5.92Zm23.033-4.112H70.36v14.448h1.568V41.784Zm-4.512.272v4.784h-2.128v1.344h2.128v7.376h1.552V42.056h-1.552Zm-3.392 3.584v-2.528h-1.6v2.608c0 2.464-.992 5.04-3.04 6.272l1.008 1.248c1.408-.848 2.336-2.336 2.848-4.144.496 1.616 1.328 3.008 2.672 3.824l.928-1.28c-1.936-1.248-2.816-3.648-2.816-6Zm17.518 4.48v-3.024h3.008v5.392h1.648V41.784H84.55v3.968h-3.008v-3.008h-1.616v2.384h-3.408v-2.384h-1.632v7.376h6.656Zm-1.616-3.696v2.352h-3.408v-2.352h3.408Zm6.608 8.192h-8.08v-3.184H76.79v4.528h9.744v-1.344Zm19.161-8.576h-2.048V41.8h-1.648v10.608h1.648V47.4h2.048v-1.36Zm-6.016 4.032v-7.248h-1.632v2.256h-3.536v-2.256h-1.648v7.248h6.816Zm-1.632-3.712v2.384h-3.536V46.36h3.536Zm-1.888 8.256v-3.232h-1.664v4.576h9.728v-1.344h-8.064Zm22.815-12.864h-1.648v3.216h-2.64v1.344h2.64v2.592h-2.72v1.344h2.72v6h1.648V41.752Zm-9.84 9.84v-3.184h4.72v-5.376h-6.368v1.328h4.752v2.72h-4.72v5.872h1.104c2.24 0 4.112-.064 6.288-.4l-.128-1.36c-1.984.304-3.68.384-5.648.4Zm25.839-6.208h-2.016v-3.6h-1.68v8.48h1.68v-3.52h2.016v-1.36Zm-4.864 3.44-.176-1.344c-1.76.384-3.312.48-6.08.48v-3.792h4.784v-1.344h-6.432v6.48h1.168c3.136 0 4.848-.096 6.736-.48Zm-1.84 1.728c-2.96 0-4.816 1.072-4.816 2.832 0 1.776 1.856 2.864 4.816 2.864s4.816-1.088 4.816-2.864c0-1.76-1.856-2.832-4.816-2.832Zm0 4.352c-2 0-3.184-.544-3.184-1.52s1.184-1.504 3.184-1.504 3.184.528 3.184 1.504-1.184 1.52-3.184 1.52Zm17.198-4.384v-3.536h1.472v3.728h1.568V41.8h-1.568v3.84h-1.472v-3.648h-1.552v8.528h1.552Zm-2.064-5.888v-1.296h-2.784v-1.472h-1.616v1.472h-2.8v1.296h7.2Zm-3.584 5.568c1.824 0 3.104-.992 3.104-2.496 0-1.472-1.28-2.48-3.104-2.48-1.792 0-3.088 1.008-3.088 2.48 0 1.504 1.296 2.496 3.088 2.496Zm0-3.776c.976 0 1.632.496 1.632 1.28 0 .816-.656 1.296-1.632 1.296-.976 0-1.616-.48-1.616-1.296 0-.784.64-1.28 1.616-1.28Zm7.024 5.136v-.4h-1.616v.4c0 1.024-.624 2.288-1.888 3.088-1.216-.752-1.792-1.936-1.792-3.088v-.4h-1.6v.4c0 1.312-.976 2.688-2.8 3.28l.784 1.216c1.344-.464 2.272-1.344 2.8-2.432.448 1.104 1.296 2.08 2.64 2.576 1.344-.528 2.176-1.536 2.64-2.64.496 1.152 1.44 2.032 2.848 2.496l.784-1.216c-1.856-.56-2.8-1.888-2.8-3.28Zm16.079-9.792h-1.664v5.392h-2.816c-.208-2.64-1.696-4.32-3.632-4.32-2.128 0-3.648 1.984-3.648 5.088 0 3.136 1.52 5.104 3.648 5.104 1.968 0 3.472-1.728 3.648-4.528h2.8v7.76h1.664V41.768Zm-8.112 9.792c-1.232 0-2.08-1.312-2.08-3.632 0-2.256.848-3.6 2.08-3.6 1.28 0 2.096 1.344 2.096 3.6 0 2.32-.816 3.632-2.096 3.632Zm23.839 1.552h-3.088v-3.76c1.152-.656 1.84-1.68 1.84-2.96 0-2.304-2.24-3.776-5.312-3.776-3.088 0-5.312 1.472-5.312 3.776 0 1.28.688 2.32 1.84 2.96v3.76h-3.056v1.344h13.088v-1.344Zm-6.56-9.2c2.176 0 3.696.96 3.696 2.48 0 1.536-1.52 2.496-3.696 2.496-2.192 0-3.712-.96-3.712-2.496 0-1.52 1.52-2.48 3.712-2.48Zm-1.824 9.2v-3.136a8.18 8.18 0 0 0 1.824.192c.64 0 1.264-.064 1.824-.208v3.152h-3.648Zm11.711 2.096v-1.984h-1.888v1.984h1.888Zm4.154 0v-1.984h-1.888v1.984h1.888Zm4.155 0v-1.984h-1.888v1.984h1.888Z" fill="#454F5D"/><defs><filter id="a" x="5" y="2" width="266" height="110" filterUnits="userSpaceOnUse" color-interpolation-filters="sRGB"><feFlood flood-opacity="0" result="BackgroundImageFix"/><feBlend in="SourceGraphic" in2="BackgroundImageFix" result="shape"/><feGaussianBlur stdDeviation="10" result="effect1_foregroundBlur"/></filter></defs></svg>