<svg viewBox="0 0 266 112" fill="none" xmlns="http://www.w3.org/2000/svg"><g filter="url(#a)"><rect x="20" y="22" width="226" height="70" rx="15" fill="#115DA4" fill-opacity=".06"/></g><rect width="226" height="70" rx="20" transform="matrix(-1 0 0 1 231 3)" fill="#278EFF"/><path d="M240 .408c-10.411-1.975-18.338 3.703-21 6.79l.296 9.259c2.859-.617 9.05-1.173 10.943 1.543C229.944 6.89 237.93 1.334 240 .408Z" fill="#278EFF"/><path d="m34.784 18.784-1.648-.016v3.456h-3.008V19.52h-1.616v2.032h-3.408v-2.048h-1.632v6.704h6.656v-2.64h3.008v3.136h1.648v-7.92Zm-6.272 4.048v2.032h-3.408v-2.032h3.408Zm4.624 4.528v1.536h-6.112V27.36h-1.632v5.68h9.392v-5.68h-1.648Zm0 2.832v1.52h-6.112v-1.52h6.112Zm16.223-.912V18.784H47.71V29.28h1.648Zm-3.968-5.92c0-2.128-1.648-3.616-3.824-3.616s-3.84 1.488-3.84 3.616c0 2.096 1.664 3.616 3.84 3.616s3.824-1.52 3.824-3.616Zm-6.048 0c0-1.344.944-2.192 2.224-2.192 1.264 0 2.224.848 2.224 2.192 0 1.312-.96 2.192-2.224 2.192-1.28 0-2.224-.88-2.224-2.192Zm10.432 8.256h-8.192v-3.392h-1.664v4.736h9.856v-1.344Zm12.639-9.104v3.68h1.647v-7.424h-1.648v2.416h-2.927v1.328h2.928Zm-2.657 3.44.864-1.28c-2.16-.72-3.407-2.384-3.407-4.224v-1.216h-1.648v1.216c0 1.984-1.265 3.808-3.52 4.528l.848 1.296c1.727-.592 2.895-1.728 3.535-3.264.624 1.344 1.728 2.416 3.328 2.944Zm4.8 5.808h-8.24v-1.232h7.744V26.88h-9.408v1.28h7.776v1.152h-7.744v3.744h9.873V31.76Zm14.08-12.976h-1.649v7.984h1.648v-7.984Zm-2.96 7.28-.193-1.344c-2.096.336-3.888.432-6.384.432v-1.6h4.944v-4.096h-6.608V20.8h4.992v1.504h-4.96v4.192h1.216c2.768 0 4.736-.048 6.992-.432Zm1.327 1.376v1.488h-6.192V27.44h-1.648v5.616h9.472V27.44h-1.632Zm0 2.784v1.504h-6.192v-1.504h6.192Zm4.479-.256-.608 3.328h1.472l1.024-3.328h-1.888Zm20.184-4.096v-1.36h-2.256v-5.728h-1.648v14.448h1.648v-7.36h2.256Zm-8.384-3.52v-2.368h-1.648v2.368c0 2.672-1.392 5.408-3.664 6.512l1.008 1.328c1.664-.848 2.864-2.528 3.488-4.528.624 1.936 1.776 3.44 3.328 4.256l1.008-1.312c-2.16-1.056-3.52-3.68-3.52-6.256Zm21.55-3.568h-1.648v3.328h-2.672c-.304-1.616-1.824-2.688-3.68-2.688-2.16 0-3.776 1.392-3.776 3.376 0 2 1.616 3.392 3.776 3.392 1.92 0 3.376-1.12 3.68-2.736h2.672v3.072h1.648v-7.744Zm-8 6.048c-1.28 0-2.192-.816-2.192-2.032 0-1.232.912-2.016 2.192-2.016 1.28 0 2.176.784 2.176 2.016 0 1.216-.944 2.032-2.176 2.032Zm6.368 2.384v1.632h-6.128v-1.632h-1.632v5.84h9.392v-5.84h-1.632Zm0 2.912v1.6h-6.128v-1.6h6.128Zm17.743-4.288v-1.36h-2.256v-5.696h-1.648v14.448h1.648V25.84h2.256Zm-8.384-2.864v-1.392h3.056v-1.36h-7.856v1.36h3.152v1.392c0 2.384-1.456 5.12-3.68 6.192l.944 1.312c1.68-.816 2.944-2.544 3.584-4.56.656 1.872 1.888 3.424 3.504 4.192l.912-1.296c-2.192-1.024-3.616-3.616-3.616-5.84Zm21.151 1.36v-1.328h-8.304v-2.4h8.208V19.28h-9.84v5.056h9.936Zm1.504 1.2h-13.056v1.36h13.056v-1.36Zm-6.576 2.432c-3.088 0-4.976.96-4.976 2.624 0 1.68 1.888 2.64 4.976 2.64 3.184 0 4.976-.96 4.976-2.64 0-1.664-1.872-2.624-4.976-2.624Zm0 3.984c-2.128 0-3.296-.464-3.296-1.36 0-.896 1.168-1.36 3.296-1.36s3.312.464 3.312 1.36c0 .896-1.184 1.36-3.312 1.36Zm21.231-5.312h-5.728v-1.312h4.368v-1.264h-8.448v-1.28h8.16V19.12h-9.808v1.264h8.176V21.6h-8.144v3.728h4.048v1.312h-5.728v1.328h13.104V26.64Zm-11.632 2.304v1.328h8.416v2.88h1.648v-4.208h-10.064ZM34.704 41.768H33.04v14.496h1.664V41.768Zm-9.488 1.2h-1.632v9.856h6.944v-9.856H28.88v3.68h-3.664v-3.68Zm0 8.528V47.96h3.664v3.536h-3.664Zm25.295-2.688h-3.12v-1.904c1.104-.496 1.744-1.2 1.744-2.16 0-1.712-2-2.72-5.152-2.72s-5.152 1.008-5.152 2.72c0 .96.624 1.68 1.712 2.144v1.92h-3.104v1.312H50.51v-1.312Zm-6.528-5.504c2.192 0 3.44.48 3.44 1.44s-1.248 1.456-3.44 1.456-3.456-.496-3.456-1.456 1.264-1.44 3.456-1.44Zm-1.792 5.504v-1.472c.528.08 1.152.128 1.792.128a11.8 11.8 0 0 0 1.76-.128v1.472H42.19Zm1.76 2.24c-3.184 0-4.976.928-4.976 2.592 0 1.664 1.872 2.592 4.976 2.592 3.2 0 4.976-.928 4.976-2.592 0-1.664-1.776-2.592-4.976-2.592Zm0 3.92c-2.128 0-3.296-.432-3.296-1.328 0-.896 1.168-1.328 3.296-1.328s3.312.432 3.312 1.328c0 .896-1.184 1.328-3.312 1.328Zm20.03-13.2h-1.663v14.496h1.663V41.768Zm-7.696 1.072c-2.127 0-3.711 1.984-3.711 5.088 0 3.136 1.584 5.104 3.712 5.104 2.16 0 3.727-1.968 3.727-5.104 0-3.104-1.567-5.088-3.727-5.088Zm0 1.488c1.28 0 2.145 1.344 2.145 3.6 0 2.32-.864 3.632-2.145 3.632-1.28 0-2.127-1.312-2.127-3.632 0-2.256.847-3.6 2.127-3.6Zm14.505 4.656.688 1.312c2.368-.464 4.32-1.808 5.28-3.68.96 1.872 2.912 3.168 5.36 3.632l.672-1.312c-2.864-.464-5.168-2.384-5.168-4.576v-.032h4.592V43H71.302v1.328h4.592v.032c0 2.192-2.288 4.16-5.104 4.624Zm12.528 4.128h-5.712v-3.376h-1.664v3.376H70.23v1.344h13.088v-1.344Zm14.64-5.36h-2c.367-1.728.367-2.992.367-4.144v-1.12h-9.808v1.344h8.192c0 1.088-.032 2.304-.4 3.92h-9.44v1.344h13.088v-1.344ZM86.452 50.84v5.216h9.872V50.84h-9.872Zm1.616 3.904v-2.592h6.64v2.592h-6.64Zm26.409-6.08v-6.32h-1.648v1.824h-6.608v-1.824h-1.648v6.32h9.904Zm-1.648-3.168v1.84h-6.608v-1.84h6.608Zm3.264 6.064v-1.328H102.99v1.328h5.68v4.688h1.648V51.56h5.776Zm14.879-5.008v-1.36h-2.048v-3.424h-1.648v8.16h1.648v-3.376h2.048Zm-4.896 2.224-.16-1.328c-1.744.384-3.296.464-6.032.464V44.04h4.752v-1.328h-6.4v6.544h1.168c3.104 0 4.784-.096 6.672-.48Zm-6.384 1.872v5.408h9.232v-5.408h-9.232Zm1.632 4.08v-2.784h5.984v2.784h-5.984Zm22.766-4.528.72-1.36c-2.848-.512-5.168-2.736-5.168-5.04v-1.088h-1.744V43.8c0 2.256-2.32 4.528-5.168 5.04l.704 1.36c2.352-.464 4.384-2 5.328-3.968.944 1.968 2.976 3.504 5.328 3.968Zm1.28 2.816h-13.088v1.36h13.088v-1.36Zm13.519-11.264h-1.648v5.424h-2.528v1.36h2.528v7.712h1.648V41.752Zm-9.84 9.728v-3.184h4.832v-5.232h-6.48v1.328h4.864v2.576h-4.832v5.872h1.136c2.528 0 4.4-.064 6.56-.448l-.144-1.344c-1.968.336-3.728.432-5.936.432Zm24.543-9.696h-1.664v9.792h-3.088v1.264h3.088v3.392h1.664V41.784Zm-7.392 6.464c2.128 0 3.648-1.168 3.648-2.912 0-1.712-1.52-2.88-3.648-2.88s-3.664 1.168-3.664 2.88c0 1.744 1.536 2.912 3.664 2.912Zm0-4.544c1.232 0 2.096.608 2.096 1.632s-.864 1.632-2.096 1.632c-1.28 0-2.112-.608-2.112-1.632s.832-1.632 2.112-1.632Zm4.816 6.32-.096-1.216c-3.136.432-6.688.464-9.424.464l.208 1.36c1.088 0 2.304-.016 3.584-.064v5.216h1.648v-5.296c1.36-.08 2.736-.224 4.08-.464Zm18.271 3.088H186.2v-3.76c1.152-.656 1.84-1.68 1.84-2.96 0-2.304-2.24-3.776-5.312-3.776-3.088 0-5.312 1.472-5.312 3.776 0 1.28.688 2.32 1.84 2.96v3.76H176.2v1.344h13.088v-1.344Zm-6.56-9.2c2.176 0 3.696.96 3.696 2.48 0 1.536-1.52 2.496-3.696 2.496-2.192 0-3.712-.96-3.712-2.496 0-1.52 1.52-2.48 3.712-2.48Zm-1.824 9.2v-3.136a8.18 8.18 0 0 0 1.824.192c.64 0 1.264-.064 1.824-.208v3.152h-3.648Zm11.711 2.096v-1.984h-1.888v1.984h1.888Z" fill="#fff"/><defs><filter id="a" x="0" y="2" width="266" height="110" filterUnits="userSpaceOnUse" color-interpolation-filters="sRGB"><feFlood flood-opacity="0" result="BackgroundImageFix"/><feBlend in="SourceGraphic" in2="BackgroundImageFix" result="shape"/><feGaussianBlur stdDeviation="10" result="effect1_foregroundBlur"/></filter></defs></svg>