<svg viewBox="0 0 266 112" fill="none" xmlns="http://www.w3.org/2000/svg"><g filter="url(#a)"><rect x="20" y="22" width="226" height="70" rx="15" fill="#115DA4" fill-opacity=".06"/></g><rect width="226" height="70" rx="20" transform="matrix(-1 0 0 1 231 3)" fill="#278EFF"/><path d="M240 .408c-10.411-1.975-18.338 3.703-21 6.79l.296 9.259c2.859-.617 9.05-1.173 10.943 1.543C229.944 6.89 237.93 1.334 240 .408Z" fill="#278EFF"/><path d="M34.816 18.768h-1.664v5.392h-2.816c-.208-2.64-1.696-4.32-3.632-4.32-2.128 0-3.648 1.984-3.648 5.088 0 3.136 1.52 5.104 3.648 5.104 1.968 0 3.472-1.728 3.648-4.528h2.8v7.76h1.664V18.768Zm-8.112 9.792c-1.232 0-2.08-1.312-2.08-3.632 0-2.256.848-3.6 2.08-3.6 1.28 0 2.096 1.344 2.096 3.6 0 2.32-.816 3.632-2.096 3.632Zm21.23-5.872h-2.303v1.328h2.304v5.264h1.648V18.8h-1.648v3.888ZM46.8 26.8l-.144-1.328c-.88.208-1.664.272-2.816.288v-4.496h2.384v-1.312h-4.016v7.152h.752c1.744 0 2.672-.048 3.84-.304Zm-5.056.032-.144-1.344c-.816.176-1.52.208-2.224.256v-4.48h2.096v-1.312h-3.728v7.152h.672c1.104 0 2.096-.016 3.328-.272Zm8.192 4.784h-8.512v-3.2h-1.648v4.544h10.16v-1.344ZM67.56 18.784l-1.648-.016v3.456h-3.008V19.52h-1.616v2.032H57.88v-2.048h-1.632v6.704h6.656v-2.64h3.008v3.136h1.648v-7.92Zm-6.272 4.048v2.032H57.88v-2.032h3.408Zm4.624 4.528v1.536H59.8V27.36h-1.632v5.68h9.392v-5.68h-1.648Zm0 2.832v1.52H59.8v-1.52h6.112Zm16.222-.912V18.784h-1.648V29.28h1.648Zm-3.968-5.92c0-2.128-1.648-3.616-3.824-3.616s-3.84 1.488-3.84 3.616c0 2.096 1.664 3.616 3.84 3.616s3.824-1.52 3.824-3.616Zm-6.048 0c0-1.344.944-2.192 2.224-2.192 1.264 0 2.224.848 2.224 2.192 0 1.312-.96 2.192-2.224 2.192-1.28 0-2.224-.88-2.224-2.192Zm10.432 8.256h-8.192v-3.392h-1.664v4.736h9.856v-1.344Zm8.831-5.92c3.024 0 5.12-1.232 5.12-3.2 0-1.936-2.096-3.184-5.12-3.184-3.056 0-5.136 1.248-5.136 3.184 0 1.968 2.08 3.2 5.136 3.2Zm0-5.056c2.048 0 3.424.704 3.424 1.856 0 1.168-1.36 1.872-3.424 1.872-2.128 0-3.44-.704-3.44-1.872 0-1.152 1.36-1.856 3.44-1.856Zm6.592 7.648-.016-1.36H84.853v1.36h3.2v4.944h1.68v-4.944h3.296v4.944h1.68v-4.944h3.264Zm9.583-6.736V20.24h-3.12v-1.584h-1.648v1.584H99.54v1.312h8.016Zm2.272 4.752v1.76h1.648v-9.28h-1.648v3.328h-2.176v1.344h2.176v1.52h-2.208v1.328h2.208Zm-2.896-1.424c0-1.6-1.344-2.688-3.312-2.688-1.984 0-3.328 1.088-3.328 2.688 0 1.616 1.344 2.704 3.328 2.704 1.968 0 3.312-1.088 3.312-2.704Zm-5.104 0c0-.896.704-1.44 1.792-1.44s1.776.544 1.776 1.44c0 .912-.688 1.456-1.776 1.456s-1.792-.544-1.792-1.456Zm4.864 3.344c-3.024 0-4.88.912-4.88 2.496s1.856 2.512 4.88 2.512c3.008 0 4.864-.928 4.864-2.512s-1.856-2.496-4.864-2.496Zm0 3.744c-2 0-3.152-.432-3.152-1.248 0-.816 1.152-1.232 3.152-1.232s3.12.416 3.12 1.232c0 .816-1.12 1.248-3.12 1.248Zm13.983-7.984c3.312 0 5.152-.88 5.152-2.48 0-1.616-1.84-2.496-5.152-2.496-3.328 0-5.152.88-5.152 2.496 0 1.6 1.824 2.48 5.152 2.48Zm0-3.744c2.256 0 3.44.432 3.44 1.264 0 .816-1.184 1.248-3.44 1.248-2.256 0-3.44-.432-3.44-1.248 0-.832 1.184-1.264 3.44-1.264Zm6.544 4.592h-13.088v1.312h13.088v-1.312Zm-9.872 7.008v-1.2h8.224v-3.456h-9.888v1.248h8.272v1.04h-8.24v3.632h10.272V31.84h-8.64Zm25.256-8.448v6.144h1.648V18.784h-1.648v3.248h-2.928v1.36h2.928Zm-2.672 3.872.88-1.28c-2.16-.768-3.376-2.688-3.376-4.608v-1.712h-1.68v1.68c0 2.144-1.248 4.16-3.504 4.976l.88 1.28c1.664-.64 2.864-1.92 3.504-3.536.624 1.472 1.744 2.624 3.296 3.2Zm4.656 4.352h-8.08V28.4h-1.664v4.56h9.744v-1.344Zm14.559-12.832h-1.568v3.664h-1.6v-3.392h-1.536v8.416h1.536v-3.68h1.6v3.776h1.568v-8.784Zm-5.424 7.76-.176-1.344c-1.408.256-2.656.352-4.48.352v-1.616h3.872v-1.28h-3.872v-1.52h4.032v-1.328h-5.632v7.088h.976c2.256 0 3.616-.048 5.28-.352Zm-4.384 1.728V29.6h8.16v3.648h1.648v-4.976h-9.808Zm24.527-9.488h-1.568v5.984h-1.536v-5.68h-1.536V32.56h1.536v-6.432h1.536v7.104h1.568V18.784Zm-7.968 2.352V19.2h-1.632v1.936h-2.736v1.328h7.072v-1.328h-2.704Zm-.816 2.144c-1.84 0-3.136 1.36-3.136 3.36 0 1.984 1.296 3.36 3.136 3.36s3.136-1.376 3.136-3.36c0-2-1.296-3.36-3.136-3.36Zm0 5.344c-.976 0-1.664-.768-1.664-1.984s.688-2 1.664-2 1.664.784 1.664 2-.688 1.984-1.664 1.984Zm22.303-4.96h2.176v-1.36h-2.176v-3.52h-1.648v14.464h1.648v-5.312h2.176v-1.36h-2.176v-2.912Zm-7.344-3.824c-2.16 0-3.712 1.984-3.712 5.088 0 3.136 1.552 5.104 3.712 5.104s3.712-1.968 3.712-5.104c0-3.104-1.552-5.088-3.712-5.088Zm0 8.72c-1.28 0-2.128-1.312-2.128-3.632 0-2.256.848-3.6 2.128-3.6 1.28 0 2.128 1.344 2.128 3.6 0 2.32-.848 3.632-2.128 3.632ZM36.256 48.968v-1.376h-2.224v-5.808h-1.664v14.464h1.664v-7.28h2.224Zm-8.432-4.96v-2.016h-1.648v2.016h-3.44v1.344H31.2v-1.344h-3.376Zm-.8 2.368c-2.096 0-3.584 1.392-3.584 3.376s1.488 3.376 3.584 3.376c2.048 0 3.584-1.392 3.584-3.376s-1.536-3.376-3.584-3.376Zm0 5.392c-1.168 0-2.016-.8-2.016-2.016s.848-2.016 2.016-2.016c1.168 0 2.016.8 2.016 2.016s-.848 2.016-2.016 2.016Zm22.03-4.496v-1.344h-8.271v-3.632h-1.648v4.976h9.92ZM50.56 49h-13.12v1.328h13.12V49Zm-9.872 5.584v-2.928h-1.648v4.256h10.096v-1.328h-8.448Zm21.727-8.464h-2.849v1.36h2.849v4.944h1.647v-10.64h-1.648v4.336Zm-2.769-3.232h-6.623v1.344h4.848c-.304 2.32-2.4 4.304-5.6 5.328l.72 1.312c4.096-1.36 6.655-4.16 6.655-7.984Zm4.785 11.728h-7.985v-3.264h-1.648v4.608h9.633v-1.344Zm14.19-12.832h-1.664v14.448h1.664V41.784Zm-6.56 4.176v-1.376h3.216v-1.36H67.18v1.36h3.216v1.376c0 2.448-1.488 5.2-3.728 6.208l.944 1.312c1.696-.8 2.992-2.544 3.632-4.544.688 1.872 1.968 3.424 3.648 4.176l.912-1.296c-2.256-.976-3.744-3.44-3.744-5.856Zm26.121-1.168H96.15v-3.008h-1.648v7.424h1.648v-3.056h2.032v-1.36Zm-5.568 4.224.768-1.28c-2.208-.64-3.456-2.224-3.456-3.808v-.08h3.008V42.52h-7.76v1.328h3.072v.08c0 1.792-1.312 3.472-3.568 4.16l.784 1.28c1.808-.528 3.008-1.632 3.664-3.104.64 1.28 1.824 2.256 3.488 2.752Zm-4.144 5.808v-1.328h7.68v-3.664h-9.328v1.264h7.696v1.216h-7.664v3.792h9.776v-1.28h-8.16Zm27.625-1.712h-5.744v-3.264h4.224v-6.912h-10.112v6.912h4.24v3.264h-5.696v1.344h13.088v-1.344Zm-10.016-4.576v-4.288h6.88v4.288h-6.88Zm21.471-4.368v1.92h-8.32v4.672h10.272v-1.344h-8.656V47.4h8.336v-4.576h-9.984v1.344h8.352Zm3.184 8.976h-13.088v1.36h13.088v-1.36Zm13.774-3.088v-8.272h-1.568v8.272h1.568Zm-12.144-.864.816 1.216c2-.816 3.392-1.936 4.304-3.344h2.56v2.8h1.552v-7.776h-1.552v3.632h-1.904c.32-.864.48-1.824.48-2.896h-5.584v1.328h3.872c-.272 2.256-1.664 3.888-4.544 5.04Zm10.384 2.16v-.816h-1.616v.816c0 1.152-.576 2.432-1.872 3.344a3.993 3.993 0 0 1-1.808-3.344v-.816h-1.6v.816c0 1.424-.976 2.912-2.816 3.6l.816 1.2c1.344-.496 2.256-1.408 2.784-2.56.448 1.168 1.312 2.176 2.656 2.688 1.344-.56 2.176-1.6 2.624-2.752.496 1.168 1.424 2.128 2.832 2.624l.8-1.2c-1.856-.64-2.8-2.096-2.8-3.6Zm16.175-9.584h-1.664v5.392h-2.816c-.208-2.64-1.696-4.32-3.632-4.32-2.128 0-3.648 1.984-3.648 5.088 0 3.136 1.52 5.104 3.648 5.104 1.968 0 3.472-1.728 3.648-4.528h2.8v7.76h1.664V41.768Zm-8.112 9.792c-1.232 0-2.08-1.312-2.08-3.632 0-2.256.848-3.6 2.08-3.6 1.28 0 2.096 1.344 2.096 3.6 0 2.32-.816 3.632-2.096 3.632Zm23.839 1.552h-3.088v-3.76c1.152-.656 1.84-1.68 1.84-2.96 0-2.304-2.24-3.776-5.312-3.776-3.088 0-5.312 1.472-5.312 3.776 0 1.28.688 2.32 1.84 2.96v3.76h-3.056v1.344h13.088v-1.344Zm-6.56-9.2c2.176 0 3.696.96 3.696 2.48 0 1.536-1.52 2.496-3.696 2.496-2.192 0-3.712-.96-3.712-2.496 0-1.52 1.52-2.48 3.712-2.48Zm-1.824 9.2v-3.136a8.18 8.18 0 0 0 1.824.192c.64 0 1.264-.064 1.824-.208v3.152h-3.648Zm11.711 2.096v-1.984h-1.888v1.984h1.888Z" fill="#fff"/><defs><filter id="a" x="0" y="2" width="266" height="110" filterUnits="userSpaceOnUse" color-interpolation-filters="sRGB"><feFlood flood-opacity="0" result="BackgroundImageFix"/><feBlend in="SourceGraphic" in2="BackgroundImageFix" result="shape"/><feGaussianBlur stdDeviation="10" result="effect1_foregroundBlur"/></filter></defs></svg>