<svg viewBox="0 0 552 378" fill="none" xmlns="http://www.w3.org/2000/svg">
<rect x="1" y="1" width="550" height="376" rx="29" fill="white" stroke="#F2F5FA" stroke-width="2"/>
<path d="M242.451 27.3134V21.7584H240.999V24.0684H239.195V22.2754H237.776V23.5514H235.851V22.2754H234.41V27.0164H239.195V25.2344H240.999V27.3134H242.451ZM235.851 24.6624H237.776V25.8614H235.851V24.6624ZM242.451 27.7424H241.01V28.6444H237.171V27.7424H235.741V31.7574H242.451V27.7424ZM237.171 29.7554H241.01V30.6134H237.171V29.7554ZM251.052 29.0404H252.515V21.7694H251.052V29.0404ZM249.754 24.9814C249.754 23.4854 248.555 22.4074 247.004 22.4074C245.453 22.4074 244.243 23.4854 244.243 24.9814C244.243 26.4554 245.453 27.5444 247.004 27.5444C248.555 27.5444 249.754 26.4554 249.754 24.9814ZM245.662 24.9814C245.662 24.1454 246.256 23.6614 247.004 23.6614C247.763 23.6614 248.335 24.1454 248.335 24.9814C248.335 25.8174 247.763 26.2904 247.004 26.2904C246.256 26.2904 245.662 25.8174 245.662 24.9814ZM252.768 31.7134V30.5584H247.224V28.3254H245.772V31.7134H252.768ZM259.389 24.3984H261.237V26.9064H262.689V21.7584H261.237V23.2434H259.389V24.3984ZM259.532 26.7854L260.269 25.6744C258.685 25.2014 257.992 24.0024 257.992 22.8144V22.0884H256.529V22.8144C256.529 24.1014 255.825 25.3444 254.142 25.8504L254.89 26.9834C256.045 26.6204 256.837 25.8944 257.288 24.9264C257.717 25.7734 258.465 26.4444 259.532 26.7854ZM262.975 31.7794V30.6464H257.453V30.0524H262.689V27.3354H256.012V28.4464H261.259V29.0074H256.023V31.7794H262.975ZM272.753 27.4124V21.7584H271.29V27.4124H272.753ZM270.619 26.9504L270.454 25.7954C269.145 26.0264 267.957 26.0704 266.285 26.0704V25.2344H269.508V22.2204H264.844V23.3754H268.078V24.1564H264.855V27.2364H265.746C267.759 27.2364 269.112 27.2144 270.619 26.9504ZM272.753 27.8304H271.312V28.6884H267.451V27.8304H266.01V31.7684H272.753V27.8304ZM267.451 29.7994H271.312V30.6134H267.451V29.7994ZM283.902 29.1504H285.365V21.7694H283.902V29.1504ZM282.417 27.6214L283.154 26.4664C281.515 25.9384 280.8 24.6404 280.8 23.3094V22.3194H279.326V23.3094C279.326 24.6294 278.6 26.0814 276.917 26.6424L277.654 27.7974C278.842 27.3904 279.612 26.5654 280.085 25.5424C280.525 26.5104 281.273 27.2364 282.417 27.6214ZM285.618 31.7134V30.5584H280.074V28.4464H278.622V31.7134H285.618ZM292.492 27.5554L293.152 26.4444C291.524 26.0044 290.82 25.0144 290.787 23.9474H292.789V22.8034H290.787V21.7254H289.335V22.8034H287.355V23.9474H289.335C289.302 25.0804 288.62 26.2134 287.003 26.6864L287.685 27.8084C288.873 27.4674 289.654 26.7524 290.105 25.8284C290.578 26.6314 291.348 27.2584 292.492 27.5554ZM294.087 21.7584V24.4644H292.514V25.6304H294.087V27.8744H295.539V21.7584H294.087ZM292.118 28.0504C289.962 28.0504 288.642 28.7434 288.642 29.9754C288.642 31.1854 289.962 31.8894 292.118 31.8894C294.263 31.8894 295.583 31.1854 295.583 29.9754C295.583 28.7434 294.263 28.0504 292.118 28.0504ZM292.118 30.7784C290.765 30.7784 290.094 30.5144 290.094 29.9754C290.094 29.4364 290.765 29.1614 292.118 29.1614C293.46 29.1614 294.131 29.4364 294.131 29.9754C294.131 30.5364 293.449 30.7784 292.118 30.7784ZM305.141 26.9174H306.593V25.7184H305.141V21.7584H303.689V31.8894H305.141V26.9174ZM303.029 23.2544H300.829V21.9344H299.377V23.2544H297.133V24.4094H303.029V23.2544ZM300.114 24.9814C298.64 24.9814 297.54 25.9824 297.54 27.3904C297.54 28.8314 298.64 29.8214 300.114 29.8214C301.577 29.8214 302.666 28.8314 302.666 27.3904C302.666 25.9824 301.577 24.9814 300.114 24.9814ZM300.114 28.6334C299.41 28.6334 298.926 28.1934 298.926 27.4014C298.926 26.6094 299.41 26.1584 300.114 26.1584C300.818 26.1584 301.291 26.6314 301.291 27.3904C301.291 28.1824 300.818 28.6334 300.114 28.6334ZM315.744 31.8784V21.7474H314.281V31.8784H315.744ZM312.73 22.8034H307.868V23.9584H311.245C311.036 26.2024 309.914 27.7974 307.329 29.0294L308.088 30.1734C311.685 28.4464 312.73 25.8944 312.73 22.8034Z" fill="#454F5D"/>
<path d="M2 50L550 50" stroke="#E9EBF1" stroke-width="0.923077"/>
<circle cx="140.187" cy="169.896" r="9.11251" stroke="#E9EBF1" stroke-width="1.40193"/>
<circle cx="140.187" cy="204.346" r="9.11251" stroke="#E9EBF1" stroke-width="1.40193"/>
<circle cx="140.187" cy="239.796" r="9.11251" stroke="#E9EBF1" stroke-width="1.40193"/>
<circle cx="405.817" cy="136.817" r="6.81681" fill="#E9EBF1"/>
<path d="M405.098 138.496H406.132V138.211C406.132 137.707 406.316 137.438 406.96 137.058C407.619 136.664 408.009 136.12 408.009 135.351V135.346C408.009 134.272 407.115 133.493 405.802 133.493C404.354 133.493 403.605 134.352 403.54 135.426L403.535 135.485H404.569L404.574 135.44C404.629 134.831 405.058 134.412 405.747 134.412C406.426 134.412 406.876 134.821 406.876 135.391V135.396C406.876 135.905 406.661 136.194 406.057 136.559C405.373 136.968 405.078 137.418 405.093 138.097L405.098 138.496ZM405.622 140.813C405.997 140.813 406.281 140.528 406.281 140.164C406.281 139.799 405.997 139.52 405.622 139.52C405.258 139.52 404.968 139.799 404.968 140.164C404.968 140.528 405.258 140.813 405.622 140.813Z" fill="#838A9A"/>
<circle cx="405.817" cy="170.817" r="6.81681" fill="#E9EBF1"/>
<path d="M405.098 172.496H406.132V172.211C406.132 171.707 406.316 171.438 406.96 171.058C407.619 170.664 408.009 170.12 408.009 169.351V169.346C408.009 168.272 407.115 167.493 405.802 167.493C404.354 167.493 403.605 168.352 403.54 169.426L403.535 169.485H404.569L404.574 169.44C404.629 168.831 405.058 168.412 405.747 168.412C406.426 168.412 406.876 168.821 406.876 169.391V169.396C406.876 169.905 406.661 170.194 406.057 170.559C405.373 170.968 405.078 171.418 405.093 172.097L405.098 172.496ZM405.622 174.813C405.997 174.813 406.281 174.528 406.281 174.164C406.281 173.799 405.997 173.52 405.622 173.52C405.258 173.52 404.968 173.799 404.968 174.164C404.968 174.528 405.258 174.813 405.622 174.813Z" fill="#838A9A"/>
<circle cx="405.817" cy="204.817" r="6.81681" fill="#E9EBF1"/>
<path d="M405.098 206.496H406.132V206.211C406.132 205.707 406.316 205.438 406.96 205.058C407.619 204.664 408.009 204.12 408.009 203.351V203.346C408.009 202.272 407.115 201.493 405.802 201.493C404.354 201.493 403.605 202.352 403.54 203.426L403.535 203.485H404.569L404.574 203.44C404.629 202.831 405.058 202.412 405.747 202.412C406.426 202.412 406.876 202.821 406.876 203.391V203.396C406.876 203.905 406.661 204.194 406.057 204.559C405.373 204.968 405.078 205.418 405.093 206.097L405.098 206.496ZM405.622 208.813C405.997 208.813 406.281 208.528 406.281 208.164C406.281 207.799 405.997 207.52 405.622 207.52C405.258 207.52 404.968 207.799 404.968 208.164C404.968 208.528 405.258 208.813 405.622 208.813Z" fill="#838A9A"/>
<circle cx="405.817" cy="239.817" r="6.81681" fill="#E9EBF1"/>
<path d="M405.098 241.496H406.132V241.211C406.132 240.707 406.316 240.438 406.96 240.058C407.619 239.664 408.009 239.12 408.009 238.351V238.346C408.009 237.272 407.115 236.493 405.802 236.493C404.354 236.493 403.605 237.352 403.54 238.426L403.535 238.485H404.569L404.574 238.44C404.629 237.831 405.058 237.412 405.747 237.412C406.426 237.412 406.876 237.821 406.876 238.391V238.396C406.876 238.905 406.661 239.194 406.057 239.559C405.373 239.968 405.078 240.418 405.093 241.097L405.098 241.496ZM405.622 243.813C405.997 243.813 406.281 243.528 406.281 243.164C406.281 242.799 405.997 242.52 405.622 242.52C405.258 242.52 404.968 242.799 404.968 243.164C404.968 243.528 405.258 243.813 405.622 243.813Z" fill="#838A9A"/>
<path d="M160.459 135.573L160.977 136.707C163.063 136.385 164.757 135.363 165.541 133.963C166.339 135.377 168.033 136.371 170.119 136.707L170.637 135.573C168.243 135.237 166.437 133.893 166.367 132.395H170.189V131.233H160.879V132.395H164.729C164.659 133.893 162.853 135.237 160.459 135.573ZM171.253 138.793L171.267 137.631H159.829V138.793H164.785V143.175H166.227V138.793H171.253ZM183.124 130.505H181.682V138.093H183.124V130.505ZM179.666 137.393L180.38 136.259C178.42 135.615 177.314 134.033 177.314 132.325V131.093H175.844V132.325C175.844 134.089 174.724 135.811 172.736 136.483L173.45 137.617C174.962 137.099 176.026 136.035 176.6 134.635C177.16 135.923 178.21 136.889 179.666 137.393ZM174.598 138.695V139.857H181.682V143.161H183.124V138.695H174.598ZM195.989 130.505H194.533V143.161H195.989V130.505ZM193.553 133.151V131.989H190.459V130.533H189.017V131.989H185.909V133.151H193.553ZM190.459 139.619V138.429C191.915 138.205 192.825 137.351 192.825 136.119C192.825 134.705 191.579 133.767 189.745 133.767C187.911 133.767 186.651 134.705 186.651 136.119C186.651 137.351 187.561 138.205 189.017 138.429V139.661C187.827 139.703 186.665 139.703 185.657 139.703L185.839 140.893C188.135 140.893 191.131 140.851 193.917 140.375L193.819 139.325C192.741 139.479 191.593 139.549 190.459 139.619ZM188.023 136.119C188.023 135.335 188.723 134.873 189.745 134.873C190.753 134.873 191.453 135.335 191.453 136.119C191.453 136.903 190.753 137.379 189.745 137.379C188.723 137.379 188.023 136.903 188.023 136.119ZM210.226 136.721V135.531H208.252V130.519H206.81V143.161H208.252V136.721H210.226ZM202.89 133.641V131.569H201.448V133.641C201.448 135.979 200.23 138.373 198.242 139.339L199.124 140.501C200.58 139.759 201.63 138.289 202.176 136.539C202.722 138.233 203.73 139.549 205.088 140.263L205.97 139.115C204.08 138.191 202.89 135.895 202.89 133.641Z" fill="#454F5D"/>
<circle cx="140.187" cy="136.444" r="9.11251" stroke="#E9EBF1" stroke-width="1.40193"/>
<path d="M165.527 170.532C168.173 170.532 170.007 169.454 170.007 167.732C170.007 166.038 168.173 164.946 165.527 164.946C162.853 164.946 161.033 166.038 161.033 167.732C161.033 169.454 162.853 170.532 165.527 170.532ZM165.527 166.108C167.319 166.108 168.523 166.724 168.523 167.732C168.523 168.754 167.333 169.37 165.527 169.37C163.665 169.37 162.517 168.754 162.517 167.732C162.517 166.724 163.707 166.108 165.527 166.108ZM171.295 172.8L171.281 171.61H159.815V172.8H162.615V177.126H164.085V172.8H166.969V177.126H168.439V172.8H171.295ZM180.184 167.074V165.926H177.174V164.47H175.732V165.926H172.722V167.074H180.184ZM184.37 168.516H182.578V164.484H181.136V173.962H182.578V169.706H184.37V168.516ZM179.512 170.056C179.512 168.642 178.266 167.662 176.446 167.662C174.64 167.662 173.38 168.642 173.38 170.056C173.38 171.512 174.64 172.45 176.446 172.45C178.266 172.45 179.512 171.512 179.512 170.056ZM174.766 170.056C174.766 169.258 175.438 168.782 176.446 168.782C177.454 168.782 178.14 169.258 178.14 170.056C178.14 170.854 177.454 171.33 176.446 171.33C175.438 171.33 174.766 170.854 174.766 170.056ZM176.026 175.712V173.234H174.57V176.888H183.082V175.712H176.026ZM195.989 164.47H194.533V177.126H195.989V164.47ZM193.553 167.116V165.954H190.459V164.498H189.017V165.954H185.909V167.116H193.553ZM190.459 173.584V172.394C191.915 172.17 192.825 171.316 192.825 170.084C192.825 168.67 191.579 167.732 189.745 167.732C187.911 167.732 186.651 168.67 186.651 170.084C186.651 171.316 187.561 172.17 189.017 172.394V173.626C187.827 173.668 186.665 173.668 185.657 173.668L185.839 174.858C188.135 174.858 191.131 174.816 193.917 174.34L193.819 173.29C192.741 173.444 191.593 173.514 190.459 173.584ZM188.023 170.084C188.023 169.3 188.723 168.838 189.745 168.838C190.753 168.838 191.453 169.3 191.453 170.084C191.453 170.868 190.753 171.344 189.745 171.344C188.723 171.344 188.023 170.868 188.023 170.084ZM210.226 170.686V169.496H208.252V164.484H206.81V177.126H208.252V170.686H210.226ZM202.89 167.606V165.534H201.448V167.606C201.448 169.944 200.23 172.338 198.242 173.304L199.124 174.466C200.58 173.724 201.63 172.254 202.176 170.504C202.722 172.198 203.73 173.514 205.088 174.228L205.97 173.08C204.08 172.156 202.89 169.86 202.89 167.606Z" fill="#454F5D"/>
<path d="M171.267 204.456H166.269V202.972H169.965V201.81H162.769V198.688H161.327V202.972H164.827V204.456H159.829V205.618H171.267V204.456ZM165.513 206.444C162.811 206.444 161.159 207.27 161.159 208.768C161.159 210.238 162.811 211.092 165.513 211.092C168.229 211.092 169.867 210.238 169.867 208.768C169.867 207.256 168.299 206.444 165.513 206.444ZM165.513 209.972C163.651 209.972 162.629 209.552 162.629 208.768C162.629 207.97 163.651 207.564 165.513 207.564C167.375 207.564 168.411 207.97 168.411 208.768C168.411 209.552 167.375 209.972 165.513 209.972ZM176.054 198.142L172.162 211.834H173.282L177.174 198.142H176.054ZM188.663 198.436H187.207V203.154H184.743C184.561 200.844 183.259 199.374 181.565 199.374C179.703 199.374 178.373 201.11 178.373 203.826C178.373 206.57 179.703 208.292 181.565 208.292C183.287 208.292 184.603 206.78 184.757 204.33H187.207V211.12H188.663V198.436ZM181.565 207.004C180.487 207.004 179.745 205.856 179.745 203.826C179.745 201.852 180.487 200.676 181.565 200.676C182.685 200.676 183.399 201.852 183.399 203.826C183.399 205.856 182.685 207.004 181.565 207.004ZM201.514 198.45H200.072V201.362H197.734C197.468 199.948 196.138 199.01 194.514 199.01C192.624 199.01 191.21 200.228 191.21 201.964C191.21 203.714 192.624 204.932 194.514 204.932C196.194 204.932 197.468 203.952 197.734 202.538H200.072V205.226H201.514V198.45ZM194.514 203.742C193.394 203.742 192.596 203.028 192.596 201.964C192.596 200.886 193.394 200.2 194.514 200.2C195.634 200.2 196.418 200.886 196.418 201.964C196.418 203.028 195.592 203.742 194.514 203.742ZM200.086 205.828V207.256H194.724V205.828H193.296V210.938H201.514V205.828H200.086ZM200.086 208.376V209.776H194.724V208.376H200.086ZM217.524 198.45L216.082 198.436V201.46H213.45V199.094H212.036V200.872H209.054V199.08H207.626V204.946H213.45V202.636H216.082V205.38H217.524V198.45ZM212.036 201.992V203.77H209.054V201.992H212.036ZM216.082 205.954V207.298H210.734V205.954H209.306V210.924H217.524V205.954H216.082ZM216.082 208.432V209.762H210.734V208.432H216.082ZM230.347 207.634V198.45H228.905V207.634H230.347ZM226.875 202.454C226.875 200.592 225.433 199.29 223.529 199.29C221.625 199.29 220.169 200.592 220.169 202.454C220.169 204.288 221.625 205.618 223.529 205.618C225.433 205.618 226.875 204.288 226.875 202.454ZM221.583 202.454C221.583 201.278 222.409 200.536 223.529 200.536C224.635 200.536 225.475 201.278 225.475 202.454C225.475 203.602 224.635 204.372 223.529 204.372C222.409 204.372 221.583 203.602 221.583 202.454ZM230.711 209.678H223.543V206.71H222.087V210.854H230.711V209.678Z" fill="#454F5D"/>
<path d="M165.527 238.463C168.173 238.463 170.007 237.385 170.007 235.663C170.007 233.969 168.173 232.877 165.527 232.877C162.853 232.877 161.033 233.969 161.033 235.663C161.033 237.385 162.853 238.463 165.527 238.463ZM165.527 234.039C167.319 234.039 168.523 234.655 168.523 235.663C168.523 236.685 167.333 237.301 165.527 237.301C163.665 237.301 162.517 236.685 162.517 235.663C162.517 234.655 163.707 234.039 165.527 234.039ZM171.295 240.731L171.281 239.541H159.815V240.731H162.615V245.057H164.085V240.731H166.969V245.057H168.439V240.731H171.295ZM180.184 235.005V233.857H177.174V232.401H175.732V233.857H172.722V235.005H180.184ZM184.37 236.447H182.578V232.415H181.136V241.893H182.578V237.637H184.37V236.447ZM179.512 237.987C179.512 236.573 178.266 235.593 176.446 235.593C174.64 235.593 173.38 236.573 173.38 237.987C173.38 239.443 174.64 240.381 176.446 240.381C178.266 240.381 179.512 239.443 179.512 237.987ZM174.766 237.987C174.766 237.189 175.438 236.713 176.446 236.713C177.454 236.713 178.14 237.189 178.14 237.987C178.14 238.785 177.454 239.261 176.446 239.261C175.438 239.261 174.766 238.785 174.766 237.987ZM176.026 243.643V241.165H174.57V244.819H183.082V243.643H176.026ZM195.989 232.401H194.533V245.057H195.989V232.401ZM193.553 235.047V233.885H190.459V232.429H189.017V233.885H185.909V235.047H193.553ZM190.459 241.515V240.325C191.915 240.101 192.825 239.247 192.825 238.015C192.825 236.601 191.579 235.663 189.745 235.663C187.911 235.663 186.651 236.601 186.651 238.015C186.651 239.247 187.561 240.101 189.017 240.325V241.557C187.827 241.599 186.665 241.599 185.657 241.599L185.839 242.789C188.135 242.789 191.131 242.747 193.917 242.271L193.819 241.221C192.741 241.375 191.593 241.445 190.459 241.515ZM188.023 238.015C188.023 237.231 188.723 236.769 189.745 236.769C190.753 236.769 191.453 237.231 191.453 238.015C191.453 238.799 190.753 239.275 189.745 239.275C188.723 239.275 188.023 238.799 188.023 238.015ZM210.226 238.617V237.427H208.252V232.415H206.81V245.057H208.252V238.617H210.226ZM202.89 235.537V233.465H201.448V235.537C201.448 237.875 200.23 240.269 198.242 241.235L199.124 242.397C200.58 241.655 201.63 240.185 202.176 238.435C202.722 240.129 203.73 241.445 205.088 242.159L205.97 241.011C204.08 240.087 202.89 237.791 202.89 235.537Z" fill="#454F5D"/>
<path d="M143.635 86.64H141.523V90H138.899V87.392H136.835V89.248H134.035V87.392H131.939V94.288H138.899V91.696H141.523V94.72H143.635V86.64ZM136.835 90.864V92.608H134.035V90.864H136.835ZM141.539 95.344V96.656H135.955V95.344H133.875V101.184H143.635V95.344H141.539ZM141.539 98.272V99.52H135.955V98.272H141.539ZM158.274 97.232V86.656H156.146V97.232H158.274ZM154.258 91.328C154.258 89.152 152.514 87.584 150.258 87.584C148.002 87.584 146.242 89.152 146.242 91.328C146.242 93.472 148.002 95.056 150.258 95.056C152.514 95.056 154.258 93.472 154.258 91.328ZM148.306 91.328C148.306 90.112 149.17 89.408 150.258 89.408C151.362 89.408 152.194 90.112 152.194 91.328C152.194 92.544 151.362 93.232 150.258 93.232C149.17 93.232 148.306 92.544 148.306 91.328ZM158.642 99.44H150.578V96.192H148.466V101.12H158.642V99.44ZM171.017 93.728C174.153 93.728 176.345 92.432 176.345 90.432C176.345 88.432 174.153 87.136 171.017 87.136C167.881 87.136 165.689 88.432 165.689 90.432C165.689 92.432 167.881 93.728 171.017 93.728ZM171.017 88.816C172.953 88.816 174.169 89.392 174.169 90.432C174.169 91.52 172.953 92.048 171.017 92.048C169.081 92.048 167.849 91.52 167.849 90.432C167.849 89.392 169.081 88.816 171.017 88.816ZM177.721 96.544V94.832H164.377V96.544H167.401V101.36H169.529V96.544H172.489V101.36H174.633V96.544H177.721ZM187.224 89.632V87.968H184.344V86.528H182.232V87.968H179.144V89.632H187.224ZM189.304 94.496V96.016H191.416V86.64H189.304V89.872H187.416V91.552H189.304V92.816H187.384V94.496H189.304ZM186.728 92.896C186.728 91.264 185.288 90.144 183.288 90.144C181.256 90.144 179.832 91.264 179.832 92.896C179.832 94.528 181.256 95.648 183.288 95.648C185.288 95.648 186.728 94.528 186.728 92.896ZM181.8 92.896C181.8 92.128 182.392 91.712 183.288 91.712C184.184 91.712 184.776 92.128 184.776 92.896C184.776 93.664 184.184 94.08 183.288 94.08C182.392 94.08 181.8 93.664 181.8 92.896ZM186.44 96.208C183.32 96.208 181.384 97.184 181.384 98.8C181.384 100.416 183.32 101.376 186.44 101.376C189.544 101.376 191.48 100.416 191.48 98.8C191.48 97.184 189.544 96.208 186.44 96.208ZM186.44 99.776C184.568 99.776 183.624 99.488 183.624 98.8C183.624 98.112 184.568 97.824 186.44 97.824C188.248 97.824 189.256 98.112 189.256 98.8C189.256 99.488 188.248 99.776 186.44 99.776ZM200.471 91.872C203.975 91.872 205.815 91.024 205.815 89.36C205.815 87.744 203.975 86.848 200.471 86.848C196.999 86.848 195.143 87.744 195.143 89.36C195.143 91.024 196.999 91.872 200.471 91.872ZM200.471 88.4C202.663 88.4 203.623 88.704 203.623 89.36C203.623 90.048 202.663 90.336 200.471 90.336C198.343 90.336 197.335 90.048 197.335 89.36C197.335 88.704 198.343 88.4 200.471 88.4ZM207.127 92.576H193.815V94.224H207.127V92.576ZM197.447 99.68V98.848H205.511V95.056H195.335V96.608H203.431V97.392H195.351V101.264H205.895V99.68H197.447ZM222.367 91.488V97.52H224.479V86.64H222.367V89.776H219.663V91.488H222.367ZM219.839 95.376L220.959 93.744C218.655 92.928 217.663 91.056 217.663 89.136V87.536H215.519V89.12C215.519 91.216 214.495 93.264 212.063 94.08L213.167 95.728C214.895 95.104 216.015 93.92 216.639 92.384C217.263 93.744 218.303 94.816 219.839 95.376ZM224.799 99.44H216.863V96.432H214.751V101.12H224.799V99.44ZM239.437 86.64H237.437V90.256H236.253V86.896H234.285V95.536H236.253V91.936H237.437V95.632H239.437V86.64ZM233.693 94.736L233.501 93.056C232.157 93.264 230.989 93.344 229.405 93.36V92.112H233.021V90.512H229.405V89.296H233.165V87.632H227.373V95.056H228.397C230.573 95.056 232.029 94.992 233.693 94.736ZM229.293 96.272V97.952H237.325V101.392H239.437V96.272H229.293ZM254.236 86.624H252.236V92.64H251.116V86.912H249.148V100.752H251.116V94.336H252.236V101.36H254.236V86.624ZM246.172 88.864V87.04H244.092V88.864H241.58V90.544H248.62V88.864H246.172ZM245.132 91.184C243.26 91.184 241.9 92.64 241.9 94.704C241.9 96.752 243.26 98.208 245.132 98.208C247.004 98.208 248.364 96.752 248.364 94.704C248.364 92.64 247.004 91.184 245.132 91.184ZM245.132 96.448C244.316 96.448 243.756 95.808 243.756 94.704C243.756 93.6 244.316 92.944 245.132 92.944C245.948 92.944 246.508 93.6 246.508 94.704C246.508 95.808 245.948 96.448 245.132 96.448ZM256.955 92.288L257.723 93.936C260.299 93.568 262.091 92.512 262.987 90.976C263.883 92.512 265.675 93.568 268.251 93.936L269.003 92.288C265.995 91.904 264.459 90.496 264.251 89.072H268.427V87.392H257.499V89.072H261.739C261.531 90.496 259.979 91.904 256.955 92.288ZM269.643 96.464V94.784H256.331V96.464H261.883V101.408H263.995V96.464H269.643ZM283.674 86.64H281.674V101.376H283.674V86.64ZM278.682 86.88V91.616H276.842V93.328H278.682V100.72H280.65V86.88H278.682ZM275.738 90.32V87.92H273.706V90.4C273.706 92.912 272.922 95.552 270.762 96.864L272.026 98.448C273.37 97.632 274.218 96.272 274.73 94.608C275.194 96.096 275.946 97.344 277.226 98.112L278.378 96.48C276.378 95.152 275.738 92.704 275.738 90.32ZM299.096 97.952H296.136V94.352C297.24 93.664 297.912 92.608 297.912 91.328C297.912 88.912 295.592 87.36 292.408 87.36C289.256 87.36 286.92 88.912 286.92 91.328C286.904 92.608 287.544 93.664 288.696 94.352V97.952H285.752V99.664H299.096V97.952ZM292.408 89.024C294.456 89.024 295.832 89.856 295.832 91.328C295.832 92.8 294.456 93.632 292.408 93.632C290.36 93.632 289 92.8 289 91.328C289 89.856 290.36 89.024 292.408 89.024ZM290.792 97.952V95.136C291.304 95.232 291.848 95.28 292.408 95.28C292.984 95.28 293.528 95.232 294.04 95.136V97.952H290.792ZM303.159 100.224V97.952H300.823V100.224H303.159Z" fill="#454F5D"/>
<circle cx="112.5" cy="93.5" r="9.5" fill="#006AFF"/>
<path d="M112.469 88.454C110.614 88.454 109.274 89.4289 108.949 91.5004L110.723 91.7983C110.736 91.5275 110.763 91.3244 110.831 91.1213C111.048 90.5256 111.589 90.0111 112.347 90.0111C113.228 90.0111 113.783 90.4985 113.783 91.4327C113.783 92.4753 113.146 93.2877 112.117 94.3167L108.719 97.661V98.7441H115.773V97.0381H112.523C112.212 97.0381 111.887 97.0517 111.522 97.1465L113.62 95.0343C114.622 93.9917 115.624 92.8138 115.665 91.3921C115.665 89.659 114.351 88.454 112.469 88.454Z" fill="#F9FAFB"/>
<rect x="129" y="297.729" width="293.929" height="44.2711" rx="6.53176" fill="#F0F2F4"/>
<path d="M276.264 318.731V317.339H274.553V312.997H272.867V324.785H274.553V318.731H276.264ZM267.478 320.558V315.449H271.283V314.083H265.792V321.963H266.801C268.844 321.963 270.453 321.886 272.229 321.579L272.063 320.187C270.543 320.443 269.151 320.545 267.478 320.558ZM282.406 313.227C279.814 313.227 278.153 314.096 278.153 315.513C278.153 316.943 279.814 317.799 282.406 317.799C285.011 317.799 286.672 316.943 286.672 315.513C286.672 314.096 285.011 313.227 282.406 313.227ZM282.406 314.517C284.054 314.517 284.935 314.849 284.935 315.513C284.935 316.177 284.054 316.509 282.406 316.509C280.81 316.509 279.89 316.177 279.89 315.513C279.89 314.849 280.81 314.517 282.406 314.517ZM287.719 318.476H277.093V319.804H287.719V318.476ZM286.455 320.634H278.332V324.619H286.455V320.634ZM279.98 321.95H284.794V323.304H279.98V321.95Z" fill="#C9CFD7"/>
<path d="M50.672 26.2895H49.4402V24.2974H48.449V29.186H49.4402V27.1074H50.672V26.2895ZM47.7273 28.4547L47.631 27.6656C46.5821 27.8677 45.6486 27.9447 44.0031 27.9447V25.6543H46.8612V24.846H43.0119V28.753H43.7144C45.5813 28.753 46.5917 28.6856 47.7273 28.4547ZM44.9077 32.0923V30.4371H49.5172V29.648H43.9165V32.891H49.6712V32.0923H44.9077ZM58.6777 24.3071H57.6866V32.9968H58.6777V24.3071ZM56.118 25.2213H51.9992V26.0296H55.0979C54.9343 28.0313 53.8469 29.5517 51.5662 30.6584L52.0955 31.4475C55.0787 30.004 56.118 27.8099 56.118 25.2213Z" fill="#454F5D"/>
<path d="M28 25.0552L35.2173 32.4611" stroke="#454F5D" stroke-width="1.01336" stroke-linecap="round"/>
<path d="M35.2178 25.0547L28.0004 32.4606" stroke="#454F5D" stroke-width="1.01336" stroke-linecap="round"/>
<g filter="url(#filter0_d)">
<path d="M357.923 196.03C358.098 196.451 357.93 198.045 357 198.414C356.07 198.784 354.882 198.414 354.882 198.414L352.726 194.102L349 197.828V181L360.414 192.414H356.162C356.37 192.814 357.7 195.495 357.923 196.03Z" fill="white"/>
<path fill-rule="evenodd" clip-rule="evenodd" d="M350 183.414V195.414L353 192.414L355.5 197.414C355.5 197.414 356.176 197.63 356.5 197.414C356.824 197.198 357.146 196.764 357 196.414C356.312 194.764 354.5 191.414 354.5 191.414H358L350 183.414Z" fill="black"/>
</g>
<defs>
<filter id="filter0_d" x="347.2" y="180.2" width="15.0142" height="21.1785" filterUnits="userSpaceOnUse" color-interpolation-filters="sRGB">
<feFlood flood-opacity="0" result="BackgroundImageFix"/>
<feColorMatrix in="SourceAlpha" type="matrix" values="0 0 0 0 0 0 0 0 0 0 0 0 0 0 0 0 0 0 127 0" result="hardAlpha"/>
<feOffset dy="1"/>
<feGaussianBlur stdDeviation="0.9"/>
<feColorMatrix type="matrix" values="0 0 0 0 0 0 0 0 0 0 0 0 0 0 0 0 0 0 0.65 0"/>
<feBlend mode="normal" in2="BackgroundImageFix" result="effect1_dropShadow"/>
<feBlend mode="normal" in="SourceGraphic" in2="effect1_dropShadow" result="shape"/>
</filter>
</defs>
</svg>
