<svg class="korbit-logo" fill="none" viewBox="0 0 470 134" xmlns="http://www.w3.org/2000/svg">
<path clip-rule="evenodd" d="M20.8946 131.906V89.1589H21.2429L54.5001 131.906H82.1855L44.0528 86.1927L79.9219 48.1562H53.1071L20.8946 82.8776V0H0V131.906H20.8946ZM134.013 134C140.282 134 146.202 132.953 151.774 130.859C157.345 128.766 162.163 125.799 166.226 121.961C170.289 118.122 173.51 113.499 175.889 108.09C178.269 102.681 179.459 96.6615 179.459 90.0312C179.459 83.401 178.269 77.3815 175.889 71.9727C173.51 66.5638 170.289 61.9401 166.226 58.1016C162.163 54.263 157.345 51.2969 151.774 49.2031C146.202 47.1094 140.282 46.0625 134.013 46.0625C127.745 46.0625 121.825 47.1094 116.253 49.2031C110.681 51.2969 105.863 54.263 101.801 58.1016C97.7378 61.9401 94.5166 66.5638 92.1369 71.9727C89.7572 77.3815 88.5674 83.401 88.5674 90.0312C88.5674 96.6615 89.7572 102.681 92.1369 108.09C94.5166 113.499 97.7378 118.122 101.801 121.961C105.863 125.799 110.681 128.766 116.253 130.859C121.825 132.953 127.745 134 134.013 134ZM123.74 113.062C126.758 114.458 130.182 115.156 134.013 115.156C137.844 115.156 141.268 114.458 144.286 113.062C147.304 111.667 149.887 109.806 152.035 107.479C154.182 105.153 155.807 102.477 156.91 99.4531C158.013 96.4288 158.564 93.2882 158.564 90.0312C158.564 86.7743 158.013 83.6337 156.91 80.6094C155.807 77.5851 154.182 74.9097 152.035 72.5833C149.887 70.2569 147.304 68.3958 144.286 67C141.268 65.6042 137.844 64.9062 134.013 64.9062C130.182 64.9062 126.758 65.6042 123.74 67C120.722 68.3958 118.139 70.2569 115.992 72.5833C113.844 74.9097 112.219 77.5851 111.116 80.6094C110.013 83.6337 109.462 86.7743 109.462 90.0312C109.462 93.2882 110.013 96.4288 111.116 99.4531C112.219 102.477 113.844 105.153 115.992 107.479C118.139 109.806 120.722 111.667 123.74 113.062ZM219.098 131.906V87.0651C219.098 85.9019 219.359 84.1571 219.882 81.8307C220.404 79.5043 221.449 77.1779 223.016 74.8516C224.583 72.5252 226.847 70.4605 229.807 68.6576C232.767 66.8546 236.684 65.9531 241.56 65.9531C243.185 65.9531 244.839 66.0985 246.522 66.3893C248.205 66.6801 249.918 67.0582 251.659 67.5234V47.2839C250.382 46.9349 249.134 46.6441 247.915 46.4115C246.696 46.1788 245.449 46.0625 244.172 46.0625C238.6 46.0625 233.666 47.4002 229.371 50.0755C225.076 52.7509 221.768 56.5312 219.446 61.4167H219.098V48.1562H198.204V131.906H219.098ZM331.346 130.598C326.239 132.866 320.493 134 314.108 134C308.188 134 302.674 132.837 297.566 130.51C292.459 128.184 288.396 124.462 285.378 119.344H285.03V131.906H265.18V0H286.074V58.7995H286.597C287.642 57.4036 288.976 55.9787 290.602 54.5247C292.227 53.0707 294.2 51.704 296.522 50.4245C298.843 49.145 301.513 48.0981 304.531 47.2839C307.549 46.4696 311.032 46.0625 314.979 46.0625C320.899 46.0625 326.355 47.1966 331.346 49.4648C336.338 51.7331 340.604 54.8446 344.144 58.7995C347.685 62.7543 350.441 67.4071 352.415 72.7578C354.388 78.1085 355.375 83.8663 355.375 90.0312C355.375 96.1962 354.446 101.954 352.589 107.305C350.732 112.655 348.004 117.308 344.405 121.263C340.807 125.218 336.454 128.329 331.346 130.598ZM309.929 115.156C306.098 115.156 302.674 114.458 299.656 113.062C296.638 111.667 294.055 109.806 291.908 107.479C289.76 105.153 288.135 102.477 287.032 99.4531C285.929 96.4288 285.378 93.2882 285.378 90.0312C285.378 86.7743 285.929 83.6337 287.032 80.6094C288.135 77.5851 289.76 74.9097 291.908 72.5833C294.055 70.2569 296.638 68.3958 299.656 67C302.674 65.6042 306.098 64.9062 309.929 64.9062C313.76 64.9062 317.184 65.6042 320.202 67C323.22 68.3958 325.803 70.2569 327.951 72.5833C330.098 74.9097 331.723 77.5851 332.826 80.6094C333.929 83.6337 334.48 86.7743 334.48 90.0312C334.48 93.2882 333.929 96.4288 332.826 99.4531C331.723 102.477 330.098 105.153 327.951 107.479C325.803 109.806 323.22 111.667 320.202 113.062C317.184 114.458 313.76 115.156 309.929 115.156ZM374.468 48.1562H395.362V131.906H374.468V48.1562ZM453.458 134C455.896 134 458.711 133.796 461.903 133.389C465.096 132.982 467.794 132.255 470 131.208V113.586C468.723 114.516 466.982 115.185 464.776 115.592C462.571 116 460.539 116.203 458.682 116.203C454.039 116.203 450.934 114.982 449.367 112.539C447.799 110.096 447.016 106.781 447.016 102.594V65.9531H470V48.1562H447.016V23.9036H426.121V48.1562H408.883V65.9531H426.121V104.339C426.121 109.224 426.499 113.528 427.253 117.25C428.008 120.972 429.401 124.084 431.432 126.585C433.463 129.086 436.249 130.947 439.79 132.168C443.33 133.389 447.887 134 453.458 134ZM398 20.5C398 27.9558 391.956 34 384.5 34C377.044 34 371 27.9558 371 20.5C371 13.0442 377.044 7 384.5 7C391.956 7 398 13.0442 398 20.5Z" fill="currentColor" fill-rule="evenodd"></path>
</svg>