<svg width="206" height="88" viewBox="0 0 206 88" fill="none" xmlns="http://www.w3.org/2000/svg">
<path d="M8 8H198V88H8V8Z" fill="#E6E6E6"/>
<path d="M24 33H73V88H24V33Z" fill="#333333"/>
<path d="M79 33H128V88H79V33Z" fill="#333333"/>
<path d="M134 33H183V88H134V33Z" fill="#333333"/>
<path d="M81.457 16.9297V24H80.1777V18.1699H80.1387L78.4883 19.2246V18.0625L80.2363 16.9297H81.457ZM84.0109 23.3066L83.1906 26.041H82.2629L82.7707 23.3066H84.0109ZM85.1586 24V23.082L87.6586 20.6699C88.3715 19.957 88.7426 19.5371 88.7426 18.9414C88.7426 18.2822 88.2201 17.8672 87.5316 17.8672C86.8041 17.8672 86.3354 18.3213 86.3402 19.0391H85.1293C85.1244 17.7012 86.1303 16.832 87.5414 16.832C88.9867 16.832 89.9584 17.6963 89.9633 18.8828C89.9584 19.6787 89.5775 20.3232 88.1859 21.6367L86.9262 22.8867V22.9355H90.0707V24H85.1586ZM92.7516 21.0703V22.0859H96.6676V21.0703H97.7418V24.7617H91.6871V21.0703H92.7516ZM90.691 20.416V19.5469H96.482C96.6676 18.6143 96.6871 17.9111 96.6871 17.291H91.6871V16.4219H97.7711V17.1055C97.776 17.7793 97.776 18.5117 97.5562 19.5469H98.7574V20.416H90.691ZM92.7516 23.8828H96.6676V22.9258H92.7516V23.8828ZM105.281 21.5586C107.2 21.5635 108.411 22.1689 108.416 23.2188C108.411 24.2441 107.2 24.8594 105.281 24.8594C103.382 24.8594 102.156 24.2441 102.156 23.2188C102.156 22.1689 103.382 21.5635 105.281 21.5586ZM101.326 20.9238V20.0449H104.432V18.4434H105.506V20.0449H109.334V20.9238H101.326ZM102.244 17.3203V16.4609H108.357V17.1934C108.362 17.8916 108.362 18.6338 108.113 19.5371L107.039 19.4395C107.259 18.585 107.273 17.96 107.273 17.3203H102.244ZM103.25 23.2188C103.24 23.7363 104.007 24.0195 105.281 24.0195C106.561 24.0195 107.332 23.7363 107.342 23.2188C107.332 22.6816 106.561 22.3789 105.281 22.3789C104.007 22.3789 103.24 22.6816 103.25 23.2188ZM112.2 16.4316C113.343 16.4268 114.241 17.0859 114.461 18.0527H116.058V16.041H117.142V20.7773H116.058V18.9316H114.471C114.261 19.9229 113.353 20.5918 112.2 20.5918C110.848 20.5918 109.866 19.7227 109.866 18.502C109.866 17.2959 110.848 16.4268 112.2 16.4316ZM110.902 18.502C110.902 19.21 111.439 19.6787 112.2 19.6738C112.943 19.6787 113.475 19.21 113.48 18.502C113.475 17.7939 112.943 17.335 112.2 17.3398C111.439 17.335 110.902 17.7939 110.902 18.502ZM111.321 24.7617V21.1875H112.396V22.125H116.058V21.1875H117.142V24.7617H111.321ZM112.396 23.8828H116.058V22.9648H112.396V23.8828ZM121.346 18.1602C121.336 19.7373 122.127 21.3291 123.495 21.9883L122.83 22.8574C121.873 22.374 121.185 21.4414 120.809 20.3184C120.423 21.5195 119.701 22.5156 118.69 23.0234L118.026 22.1543C119.447 21.4805 120.257 19.791 120.262 18.1602V16.7539H121.346V18.1602ZM124.022 24.8691V16.041H125.106V19.498H126.463V20.4258H125.106V24.8691H124.022Z" fill="#555555"/>
<path d="M0 8H206V0H0V8Z" fill="#333333"/>
</svg>
