<svg width="258" height="156" viewBox="0 0 258 156" fill="none" xmlns="http://www.w3.org/2000/svg">
<g clip-path="url(#clip0_1_929)">
<path d="M56.3536 93.8254H30.4941C25.5236 93.8254 21.4941 97.8549 21.4941 102.825V146.847C21.4941 151.818 25.5236 155.847 30.4941 155.847H47.3653C52.3359 155.847 56.3653 151.818 56.3653 146.847V93.8371C56.3653 93.8307 56.3601 93.8254 56.3536 93.8254Z" fill="#222222"/>
<path d="M231.518 102.825C231.518 97.8549 227.488 93.8254 222.518 93.8254H205.658C200.688 93.8254 196.658 97.8549 196.658 102.825V146.847C196.658 151.818 200.688 155.847 205.658 155.847H222.518C227.488 155.847 231.518 151.818 231.518 146.847V102.825Z" fill="#222222"/>
<path d="M227.199 48.0655C226.937 47.7368 226.706 47.3852 226.507 47.015L205.533 7.88366C202.932 3.03203 197.871 -0.000244141 192.366 -0.000244141H60.6336C55.1289 -0.000244141 50.0673 3.03203 47.4665 7.88366L26.5041 47.0142C26.3055 47.3849 26.0739 47.737 25.8121 48.0661L12.8574 64.3535C11.8722 65.5922 11.3358 67.1282 11.3358 68.7109V129.639C11.3358 133.505 14.4698 136.639 18.3358 136.639H234.675C238.541 136.639 241.675 133.505 241.675 129.639V68.7109C241.675 67.1282 241.139 65.5922 240.154 64.3535L227.199 48.0655Z" fill="#666666"/>
<path d="M230.153 81.8711H176.551V87.749H224.566C227.645 87.749 230.153 85.2532 230.153 82.186V81.8711Z" fill="white"/>
<path d="M22.8468 81.8711H76.4481V87.749H28.4332C25.3543 87.749 22.8468 85.2532 22.8468 82.186V81.8711Z" fill="white"/>
<path d="M215.423 48.2828H37.5767L55.9569 12.8519C57.3914 10.1579 60.1904 8.4668 63.246 8.4668H189.765C192.821 8.4668 195.62 10.1579 197.054 12.8519L215.435 48.2828H215.423Z" fill="#222222"/>
<path d="M22.6835 44.411V43.4368C22.6835 40.1231 19.9972 37.4368 16.6835 37.4368H2.27399C0.851153 37.4368 -0.221806 38.7197 0.034771 40.1075L1.10773 46.1604C1.56257 48.7261 3.80179 50.6038 6.41421 50.6038H22.6136H22.6835H33.6697C35.383 50.6038 36.772 49.2149 36.772 47.5016C36.772 45.7882 35.383 44.3993 33.6697 44.3993H22.6952C22.6888 44.3993 22.6835 44.4045 22.6835 44.411Z" fill="#666666"/>
<path d="M230.318 44.4013C230.322 44.405 230.328 44.4024 230.328 44.3972V39.4789C230.328 38.3512 231.242 37.437 232.37 37.437H250.726C252.149 37.437 253.222 38.7199 252.965 40.1077L251.892 46.1606C251.438 48.7264 249.198 50.6041 246.586 50.6041H230.387H230.317H219.33C217.617 50.6041 216.228 49.2151 216.228 47.5018C216.228 45.7885 217.617 44.3996 219.33 44.3996H230.314C230.316 44.3996 230.317 44.4002 230.318 44.4013Z" fill="#666666"/>
</g>
<defs>
<clipPath id="clip0_1_929">
<rect width="258" height="155.847" fill="white"/>
</clipPath>
</defs>
</svg>
