<svg width="83" height="35" viewBox="0 0 83 35" fill="none" xmlns="http://www.w3.org/2000/svg">
<g id="Group 516508">
<path id="Vector" d="M76.8644 34.7117H72.5292C71.8558 34.7117 71.216 34.5002 70.631 34.1238C70.0459 33.7474 69.524 33.2019 69.0821 32.5253C68.6402 31.8486 68.2824 31.0451 68.0383 30.1528C67.7942 29.2604 67.6553 28.2793 67.6553 27.2474C67.6553 26.2155 67.79 25.2344 68.0383 24.3421C68.2866 23.4498 68.6402 22.6463 69.0821 21.9696C69.524 21.293 70.0502 20.7474 70.631 20.371C71.2118 19.9947 71.8558 19.7832 72.5292 19.7832H76.8644C76.191 19.7832 75.5512 19.9904 74.9662 20.3668C74.3812 20.7432 73.8593 21.293 73.4173 21.9654C72.9754 22.6378 72.6176 23.4455 72.3735 24.3379C72.1294 25.2302 71.9905 26.2155 71.9905 27.2432C71.9905 28.2751 72.1252 29.2562 72.3735 30.1485C72.6218 31.0409 72.9754 31.8444 73.4173 32.521C73.8593 33.1977 74.3854 33.7432 74.9662 34.1196C75.547 34.496 76.191 34.7074 76.8644 34.7074V34.7117Z" fill="#262626"/>
<path id="Vector_2" d="M43.794 34.7117H39.1052C38.3771 34.7117 37.6826 34.5002 37.0555 34.1238C36.4283 33.7474 35.8559 33.2019 35.3803 32.5253C34.9047 31.8486 34.5175 31.0451 34.2523 30.1528C33.9872 29.2604 33.8398 28.2793 33.8398 27.2474C33.8398 26.2155 33.9872 25.2344 34.2523 24.3421C34.5175 23.4498 34.9047 22.6463 35.3803 21.9696C35.8559 21.293 36.4241 20.7474 37.0555 20.371C37.6868 19.9947 38.3813 19.7832 39.1052 19.7832H43.794C43.0658 19.7832 42.3714 19.9904 41.7442 20.3668C41.1171 20.7432 40.5447 21.293 40.0691 21.9654C39.5935 22.6378 39.2062 23.4455 38.9411 24.3379C38.6759 25.2302 38.5286 26.2155 38.5286 27.2432C38.5286 28.2709 38.6759 29.2562 38.9411 30.1485C39.2062 31.0409 39.5935 31.8444 40.0691 32.521C40.5447 33.1977 41.1129 33.7432 41.7442 34.1196C42.3756 34.496 43.0658 34.7074 43.794 34.7074V34.7117Z" fill="#363636"/>
<path id="Vector_3" d="M12.1838 34.7117H7.84857C7.17513 34.7117 6.53538 34.5002 5.95033 34.1238C5.36529 33.7474 4.84338 33.2019 4.40144 32.5253C3.9595 31.8486 3.60174 31.0451 3.35762 30.1528C3.1135 29.2604 2.97461 28.2793 2.97461 27.2474C2.97461 26.2155 3.1093 25.2344 3.35762 24.3421C3.60595 23.4498 3.9595 22.6463 4.40144 21.9696C4.84338 21.293 5.3695 20.7474 5.95033 20.371C6.53117 19.9947 7.17513 19.7832 7.84857 19.7832H12.1838C11.5103 19.7832 10.8706 19.9904 10.2855 20.3668C9.7005 20.7432 9.17859 21.293 8.73665 21.9654C8.29471 22.6378 7.93695 23.4455 7.69283 24.3379C7.44872 25.2302 7.30982 26.2155 7.30982 27.2432C7.30982 28.2709 7.44451 29.2562 7.69283 30.1485C7.94116 31.0409 8.29471 31.8444 8.73665 32.521C9.17859 33.1977 9.70471 33.7432 10.2855 34.1196C10.8664 34.496 11.5103 34.7074 12.1838 34.7074V34.7117Z" fill="#363636"/>
<path id="Vector_4" d="M12.1835 19.7832C12.857 19.7832 13.4967 19.9947 14.0818 20.371C14.6668 20.7474 15.1887 21.2972 15.6307 21.9696C16.0726 22.642 16.4261 23.4498 16.6745 24.3421C16.9228 25.2344 17.0575 26.2155 17.0575 27.2474C17.0575 28.2793 16.9228 29.2604 16.6745 30.1528C16.4261 31.0451 16.0726 31.8486 15.6307 32.5253C15.1887 33.2019 14.6668 33.7474 14.0818 34.1238C13.4967 34.5002 12.857 34.7117 12.1835 34.7117C11.5101 34.7117 10.8703 34.5044 10.2853 34.1238C9.70025 33.7432 9.17834 33.1977 8.7364 32.5253C8.29446 31.8528 7.9367 31.0451 7.69258 30.1528C7.44847 29.2604 7.30957 28.2751 7.30957 27.2474C7.30957 26.2198 7.44426 25.2344 7.69258 24.3421C7.94091 23.4498 8.29446 22.6463 8.7364 21.9696C9.17834 21.293 9.70446 20.7474 10.2853 20.371C10.8661 19.9947 11.5101 19.7832 12.1835 19.7832Z" fill="#363636"/>
<path id="Vector_5" d="M76.8642 19.7832C77.5376 19.7832 78.1774 19.9947 78.7624 20.371C79.3475 20.7474 79.8694 21.2972 80.3113 21.9696C80.7533 22.642 81.1068 23.4498 81.3551 24.3421C81.6035 25.2344 81.7381 26.2155 81.7381 27.2474C81.7381 28.2793 81.6035 29.2604 81.3551 30.1528C81.1068 31.0451 80.7533 31.8486 80.3113 32.5253C79.8694 33.2019 79.3475 33.7474 78.7624 34.1238C78.1774 34.5002 77.5376 34.7117 76.8642 34.7117C76.1908 34.7117 75.551 34.5044 74.966 34.1238C74.3809 33.7432 73.859 33.1977 73.4171 32.5253C72.9751 31.8528 72.6174 31.0451 72.3732 30.1528C72.1291 29.2604 71.9902 28.2751 71.9902 27.2474C71.9902 26.2155 72.1249 25.2344 72.3732 24.3421C72.6216 23.4498 72.9751 22.6463 73.4171 21.9696C73.859 21.293 74.3851 20.7474 74.966 20.371C75.5468 19.9947 76.1908 19.7832 76.8642 19.7832Z" fill="#262626"/>
<path id="Vector_6" d="M43.7947 19.7832C44.5228 19.7832 45.2131 19.9947 45.8444 20.371C46.4758 20.7474 47.0398 21.2972 47.5196 21.9696C47.9994 22.642 48.3824 23.4498 48.6476 24.3421C48.9128 25.2344 49.0601 26.2155 49.0601 27.2474C49.0601 28.2793 48.9128 29.2604 48.6476 30.1528C48.3824 31.0451 47.9952 31.8486 47.5196 32.5253C47.044 33.2019 46.4758 33.7474 45.8444 34.1238C45.2131 34.5002 44.5228 34.7117 43.7947 34.7117C43.0665 34.7117 42.3721 34.5044 41.7449 34.1238C41.1178 33.7432 40.5454 33.1977 40.0698 32.5253C39.5942 31.8528 39.2069 31.0451 38.9418 30.1528C38.6766 29.2604 38.5293 28.2751 38.5293 27.2474C38.5293 26.2198 38.6766 25.2344 38.9418 24.3421C39.2069 23.4498 39.5942 22.6463 40.0698 21.9696C40.5454 21.293 41.1136 20.7474 41.7449 20.371C42.3763 19.9947 43.0665 19.7832 43.7947 19.7832Z" fill="#363636"/>
<path id="Vector_7" d="M79.3807 10.6952L76.2829 9.42226L65.1376 1.4421C63.8286 0.503254 62.2629 0 60.6551 0H35.8181C34.0714 0 32.3584 0.465192 30.8473 1.34483L20.2955 7.49806C19.6473 7.93787 18.9487 8.29311 18.2121 8.56377L3.19038 14.0277C1.27531 14.7255 0 16.5524 0 18.5992V25.6194C0 28.0173 1.9319 29.9584 4.31838 29.9584H37.8805C38.3771 29.9584 38.7602 29.5143 38.676 29.0238C38.575 28.4571 38.5245 27.865 38.5245 27.2518C38.5245 26.2199 38.6718 25.2388 38.9369 24.3465C39.2021 23.4542 39.5893 22.6506 40.0649 21.974C40.5405 21.2974 41.1087 20.7518 41.7401 20.3754C42.3714 19.999 43.0617 19.7876 43.7898 19.7876C44.518 19.7876 45.2083 19.999 45.8396 20.3754C46.4709 20.7518 47.0349 21.3016 47.5148 21.974C47.9904 22.6506 48.3776 23.4542 48.6427 24.3465C48.9079 25.2388 49.0552 26.2199 49.0552 27.2518C49.0552 28.2076 48.9248 29.121 48.6933 29.9584H71.068C71.6993 29.9584 72.1749 29.3959 72.0908 28.77C72.0234 28.2795 71.9855 27.772 71.9855 27.2518C71.9855 26.2199 72.1202 25.2388 72.3686 24.3465C72.6169 23.4542 72.9704 22.6506 73.4124 21.974C73.8543 21.2974 74.3804 20.7518 74.9613 20.3754C75.5463 19.999 76.1861 19.7876 76.8595 19.7876C77.5329 19.7876 78.1727 19.999 78.7577 20.3754C79.3386 20.7518 79.8647 21.3016 80.3066 21.974C80.7486 22.6506 81.1021 23.4542 81.3504 24.3465C81.5988 25.2388 81.7335 26.2199 81.7335 27.2518C81.7335 27.476 81.725 27.6959 81.7124 27.9115C82.1501 27.6663 82.4406 27.1968 82.4406 26.6724V15.2837C82.4406 13.2749 81.2326 11.4649 79.3807 10.7037V10.6952Z" fill="black"/>
<path id="Vector_8" d="M33.1934 15.8853H20.9434V17.3561H31.7967C32.5674 17.3561 33.1934 16.7321 33.1934 15.9637V15.8853Z" fill="white"/>
<path id="Intersect" fill-rule="evenodd" clip-rule="evenodd" d="M0.825235 15.8853C0.526381 16.3315 0.300866 16.8278 0.161949 17.3551H5.5625V15.8853H0.825235Z" fill="white"/>
</g>
</svg>
