<svg width="85" height="70" viewBox="0 0 85 70" fill="none" xmlns="http://www.w3.org/2000/svg">
<path d="M0 14.7712L42.5 0L85 14.7712V70H0V14.7712Z" fill="#E6E6E6"/>
<path d="M27.373 16.0508V16.7832C27.3779 17.5254 27.3779 18.3799 27.1729 19.498H28.3594V20.3867H20.293V19.498H26.0693C26.2744 18.4336 26.2891 17.6475 26.2891 16.9297H21.2891V16.0508H27.373ZM21.3379 24.1855V21.2266H22.4121V23.3066H27.627V24.1855H21.3379ZM36.1379 15.543V24.3809H35.0539V19.8691H33.3449V18.9902H35.0539V15.543H36.1379ZM28.716 21.8613C30.093 21.2363 30.8742 19.7324 30.8742 18.3457V17.8867H28.9797V17.0176H30.884V15.7285H31.968V17.0176H33.8137V17.8867H31.9582V18.3457C31.9533 19.6787 32.7541 21.1045 34.1457 21.7246L33.5598 22.5547C32.5539 22.125 31.8166 21.2412 31.426 20.1865C31.0402 21.3047 30.3127 22.2471 29.302 22.7012L28.716 21.8613ZM43.941 16.4121C43.9361 19.0781 43.2086 21.3682 39.9566 22.9844L39.3609 22.1641C40.8893 21.4121 41.8023 20.5283 42.315 19.4834L39.566 19.7422L39.4293 18.8047L42.6422 18.6045C42.7545 18.1895 42.8277 17.7549 42.8619 17.291H39.8883V16.4121H43.941ZM45.1812 24.3516V15.543H46.2652V19H47.5738V19.8887H46.2652V24.3516H45.1812ZM55.3426 15.543V22.1543H54.3074V15.543H55.3426ZM47.7352 20.1426C48.9119 19.5713 49.4637 18.3994 49.4637 17.3496V16.1484H50.5184V17.3496C50.5184 18.3799 51.0262 19.4053 52.1492 19.9082L51.5438 20.748C50.8016 20.4014 50.2938 19.8057 50.0008 19.0879C49.6883 19.8984 49.1365 20.5869 48.3309 20.9629L47.7352 20.1426ZM49.4344 24.1953V21.3633H50.5184V23.3164H55.5867V24.1953H49.4344ZM51.3582 18.5312V17.6426H52.5398V15.6992H53.575V21.8906H52.5398V18.5312H51.3582ZM63.6387 15.543V24.3809H62.5645V19.6152H60.9043V18.7363H62.5645V15.543H63.6387ZM56.6367 22.3496V16.3047H60.7676V17.1934H57.7305V18.7754H60.416V19.6348H57.7305V21.4512C59.0732 21.4463 60.0791 21.3975 61.2168 21.2168L61.3242 22.0957C60.04 22.291 58.9072 22.3398 57.3301 22.3496H56.6367Z" fill="#888888"/>
<rect x="14" y="30" width="57" height="40" fill="#666666"/>
</svg>
