<svg width="153" height="132" viewBox="0 0 153 132" fill="none" xmlns="http://www.w3.org/2000/svg">
<g id="Layer_1" clip-path="url(#clip0_1_855)">
<path id="Vector" d="M153 131.18C153 131.18 150.58 111 129.77 90.7299C115.3 78.7999 96.74 71.6399 76.51 71.6399C56.28 71.6399 37.7 78.8099 23.23 90.7399C2.42 111.01 0 131.18 0 131.18H25.82V214.88H127.17V131.18H152.99H153Z" fill="#AD4C4C"/>
<path id="Vector_2" fill-rule="evenodd" clip-rule="evenodd" d="M62.9 32.9099H90.11V72.7399L76.5 109.4L62.91 72.7399V32.9099H62.9Z" fill="#FFC4CB"/>
<path id="Vector_3" d="M104.19 36.5901C104.13 52.6701 91.68 65.8601 76.54 65.8701C63.13 65.8901 51.94 55.7801 49.38 42.3401C49.02 40.4501 48.83 38.4801 48.83 36.4701C48.83 35.8201 48.85 35.1801 48.89 34.5401C49.82 19.2001 61.83 7.06006 76.51 7.06006C88 7.06006 97.85 14.4901 102.04 25.0801C102.52 26.3101 102.94 27.5801 103.26 28.8901C103.88 31.3401 104.2 33.9201 104.19 36.5801V36.5901Z" fill="#FCC6CA"/>
<path id="Vector_4" d="M106.47 32.5601C107.52 21.8201 102.77 11.2201 93.81 5.19006C91.11 3.37006 85.29 1.28006 80.39 0.420062C67.43 -1.85994 54.17 5.45006 48.8 17.4501C46.71 22.1301 45.88 27.3401 46.74 32.5801L47.19 35.3301C47.19 35.3301 65.99 26.1801 71.93 13.4501C71.93 13.4501 81.59 30.1301 106.31 34.2301L106.47 32.5601Z" fill="#080407"/>
<path id="Vector_5" d="M56.73 40.6799C57.18 42.3099 56.95 44.5599 56.45 46.8599C55.31 52.0399 48.94 54.0399 45.07 50.4099C43.19 48.6399 41.59 46.7099 41.11 44.9799C39.73 39.9899 42.11 34.9799 46.41 33.7899C50.71 32.5999 55.33 35.6799 56.71 40.6799H56.73Z" fill="#FCC6CA"/>
<path id="Vector_6" d="M96.29 40.6799C95.84 42.3099 96.07 44.5599 96.57 46.8599C97.71 52.0399 104.08 54.0399 107.95 50.4099C109.83 48.6399 111.43 46.7099 111.91 44.9799C113.29 39.9899 110.91 34.9799 106.6 33.7899C102.29 32.5999 97.68 35.6799 96.3 40.6799H96.29Z" fill="#FCC6CA"/>
<path id="Vector_7" d="M62.91 72.74C62.91 72.74 76.06 86.96 90.11 72.74L76.49 109.4L62.9 72.74H62.91Z" fill="#FBF9FF"/>
</g>
<defs>
<clipPath id="clip0_1_855">
<rect width="153" height="214.87" fill="white"/>
</clipPath>
</defs>
</svg>
