<svg width="171" height="222" viewBox="0 0 171 222" fill="none" xmlns="http://www.w3.org/2000/svg">
<g id="Group 14375">
<path id="Vector" d="M170.068 153.247H0H0.00286268C0.00286268 153.247 2.69665 130.793 25.8114 108.239C41.9025 94.9523 62.5353 86.9712 85.0346 86.9712C107.534 86.9712 128.149 94.9452 144.238 108.221C144.241 108.224 144.242 108.225 144.245 108.227C167.37 130.786 170.065 153.245 170.065 153.245H170.068V153.247Z" fill="#F7F7F7"/>
<path id="Vector_2" d="M120.124 91.7983V145.545H49.9497V91.8012L49.9554 91.7969C49.9554 91.7969 49.9526 91.7969 49.9497 91.7997V91.7969L49.9339 91.8055C49.3829 92.0402 37.3839 97.1902 28.7114 104.353L28.7114 221.721H141.371V104.357C132.494 97.0227 120.123 91.7969 120.123 91.7969L120.124 91.7983Z" fill="black"/>
<path id="Vector_3" fill-rule="evenodd" clip-rule="evenodd" d="M69.9198 43.832H100.157V94.8537H100.147C100.153 95.0397 100.157 95.2272 100.157 95.4133C100.157 103.764 93.3866 110.533 85.0405 110.533C76.6943 110.533 69.9212 103.764 69.9212 95.4133C69.9212 95.2272 69.9241 95.0397 69.9313 94.8537H69.9212V43.832H69.9198Z" fill="#FEC8CC"/>
<path id="Vector_4" fill-rule="evenodd" clip-rule="evenodd" d="M85.037 82.5271C96.1923 82.5271 105.954 76.1643 111.315 66.6511C113.467 66.7293 122.545 66.5288 126.373 57.7925C128.802 52.2571 127.327 45.7153 122.319 42.7654C119.915 41.349 117.216 41.0552 114.755 41.7261C111.358 27.52 99.1485 17.0029 85.0395 17.0029C70.9305 17.0029 58.6717 27.52 55.322 41.7261C52.8614 41.0577 50.1662 41.3503 47.7662 42.7679C42.758 45.7203 41.2836 52.2596 43.7127 57.795C47.5379 66.5288 56.6147 66.7319 58.7676 66.6537C64.1289 76.1669 73.888 82.5296 85.0408 82.5296L85.0383 82.5271H85.037Z" fill="#FEC8CC"/>
<path id="Vector_5" d="M141.383 176.423V153.243H167.781L167.85 179.827C167.854 181.367 167.742 182.907 167.518 184.432L167.103 187.243C165.67 196.964 159.714 205.431 151.049 210.066C144.118 213.773 136.038 214.71 128.444 212.688L56.5859 193.558L55.5883 172.487L141.381 176.423H141.383Z" fill="#F9BEC2"/>
<path id="Vector_6" d="M28.7087 176.423V153.243H2.31044L2.2446 178.655C2.23887 180.971 2.50796 183.281 3.04901 185.532L4.27424 190.641C6.1221 198.344 11.0273 204.963 17.8577 208.975C25.2634 213.323 34.2093 214.186 42.3093 211.332L141.367 176.423L132.691 169.461C125.871 163.988 117.04 161.682 108.413 163.12L28.7072 176.422L28.7087 176.423Z" fill="#FEC8CC"/>
<path id="Vector_7" d="M31.2987 156.844L19.6519 158.966C17.8083 159.447 16.7964 161.427 17.4934 163.205L20.1228 169.901C21.5899 173.633 25.1167 176.472 29.1202 176.583L55.4225 172.218L42.2971 160.051C39.34 157.31 35.265 156.122 31.2973 156.845L31.2987 156.844Z" fill="#F9BEC2"/>
<path id="Vector_8" fill-rule="evenodd" clip-rule="evenodd" d="M116.499 31.2583L116.249 31.2256L110.556 30.2832L105.657 29.5857C91.9885 27.6397 78.0825 27.6397 64.4137 29.5857L59.8696 30.2327L53.9225 31.0213L53.4496 31.0894L53.6343 27.8095L54.4881 18.3548C54.9169 15.3847 56.023 12.6176 57.6638 10.1987C58.4319 9.06484 59.3172 8.00543 60.3047 7.03936C63.3985 4.00997 67.491 1.87351 72.1183 1.08778C80.6604 -0.362594 89.4131 -0.362594 97.9552 1.08778C104.059 2.12448 109.235 5.51331 112.41 10.2024C114.048 12.6214 115.154 15.3872 115.583 18.3548L116.499 27.982L116.666 30.9097L116.499 31.2583Z" fill="black"/>
<path id="Vector_9" fill-rule="evenodd" clip-rule="evenodd" d="M67.9176 26.1032L53.4622 30.8809L53.4622 44.6131C53.6932 49.0083 58.106 51.2639 61.0547 48.4933C64.8579 44.9185 69.5636 42.3599 74.7086 41.1128C77.632 40.4047 81.1197 39.8859 85.0655 39.8859C89.0114 39.8859 92.499 40.4047 95.4224 41.1128C100.569 42.3599 105.273 44.9185 109.076 48.4933C112.025 51.2639 116.438 49.0095 116.669 44.6131V30.8809L102.213 26.1019C91.0512 22.5878 79.0786 22.5878 67.9164 26.1019L67.9176 26.1032Z" fill="#212121"/>
</g>
</svg>
