<svg width="180" height="50" viewBox="0 0 180 50" fill="none" xmlns="http://www.w3.org/2000/svg">
<g clip-path="url(#clip0_1_1024)">
<path d="M70.6779 29.0128C70.6779 22.2819 65.9104 16.6738 58.9453 16.6738C51.6059 16.6738 46.6042 22.0498 46.6042 28.9668C46.6042 35.8838 51.6059 41.2598 59.3175 41.2598C63.51 41.2598 66.59 39.6497 68.7667 36.9398L68.6873 37.0444C68.6873 37.0444 70.105 35.5451 70.243 33.6318L65.2622 33.6214L65.1849 33.7322C64.0641 35.3674 62.1696 36.6303 59.3635 36.6303C55.6248 36.6303 52.6786 34.761 51.884 31.1143H70.4876C70.5817 30.4598 70.6737 29.7112 70.6737 29.0107L70.6779 29.0128ZM51.8401 27.0034C52.5406 23.4968 55.1125 21.2531 58.8972 21.2531C61.9355 21.2531 64.8796 22.9824 65.5822 27.0034H51.8401Z" fill="black"/>
<path d="M40.1432 40.6509H35.0537L39.5075 17.2798H44.597L40.1432 40.6509Z" fill="black"/>
<path d="M31.1978 40.6509H36.2894L31.8356 17.2798H26.7461L31.1978 40.6509Z" fill="black"/>
<path d="M22.8799 40.6509H17.7883L22.2422 17.2798H27.3337L22.8799 40.6509Z" fill="black"/>
<path d="M13.8759 40.6509H18.9654L14.5116 17.2798H9.42212L13.8759 40.6509Z" fill="black"/>
<path d="M112.257 28.9644C112.257 35.9295 106.975 41.2574 100.619 41.2574C96.9721 41.2574 94.2161 39.7623 92.4388 37.3305V49.9978H87.3911V17.2799H92.4388V20.6443C94.214 18.1665 96.9721 16.6714 100.619 16.6714C106.975 16.6714 112.257 22.0473 112.257 28.9644ZM107.21 28.9644C107.21 24.6172 104.031 21.4849 99.8242 21.4849C95.6171 21.4849 92.4388 24.6172 92.4388 28.9644C92.4388 33.3116 95.6171 36.4439 99.8242 36.4439C104.031 36.4439 107.21 33.3116 107.21 28.9644Z" fill="black"/>
<path d="M139.838 17.2802V40.6513H134.79V37.2869C133.015 39.7647 130.257 41.2598 126.61 41.2598C120.253 41.2598 114.971 35.8838 114.971 28.9668C114.971 22.0498 120.253 16.6738 126.61 16.6738C130.257 16.6738 133.013 18.1689 134.79 20.6007V17.2823H139.838V17.2802ZM134.79 28.9647C134.79 24.6175 131.612 21.4852 127.405 21.4852C123.197 21.4852 120.019 24.6175 120.019 28.9647C120.019 33.3119 123.197 36.4442 127.405 36.4442C131.612 36.4442 134.79 33.3119 134.79 28.9647Z" fill="black"/>
<path d="M145.728 17.2798H150.776V40.6509H145.728V17.2798Z" fill="black"/>
<path d="M156.664 17.2803H161.712V40.6514H156.664V17.2803Z" fill="black"/>
<path d="M150.776 9.6416H145.728V14.6893H150.776V9.6416Z" fill="black"/>
<path d="M169.264 17.2798H161.101V22.2585H169.264V17.2798Z" fill="black"/>
<path fill-rule="evenodd" clip-rule="evenodd" d="M0 0H179.314V40.6511H177.432V1.8819H1.8819V40.6511H0V0Z" fill="black"/>
<path fill-rule="evenodd" clip-rule="evenodd" d="M77.6055 40.6513V1.23389H79.4874V40.6513H77.6055Z" fill="black"/>
</g>
<defs>
<clipPath id="clip0_1_1024">
<rect width="179.314" height="50" fill="white"/>
</clipPath>
</defs>
</svg>
