<svg width="10" height="7" viewBox="0 0 10 7" fill="none" xmlns="http://www.w3.org/2000/svg">
<path d="M5.604 6.372C5.444 6.54 5.292 6.648 5.148 6.696C5.004 6.752 4.864 6.78 4.728 6.78C4.592 6.78 4.456 6.752 4.32 6.696C4.184 6.648 4.036 6.54 3.876 6.372L0.468 2.604C0.228 2.34 0.112 2.06 0.12 1.764C0.136 1.468 0.26 1.204 0.492 0.972C0.604 0.86 0.732 0.772 0.876 0.708C1.02 0.644 1.168 0.608 1.32 0.6C1.472 0.592 1.616 0.616 1.752 0.672C1.896 0.728 2.024 0.824 2.136 0.96L4.74 4.02L7.344 0.96C7.456 0.824 7.58 0.728 7.716 0.672C7.86 0.616 8.008 0.592 8.16 0.6C8.312 0.608 8.46 0.644 8.604 0.708C8.748 0.772 8.876 0.86 8.988 0.972C9.22 1.204 9.34 1.468 9.348 1.764C9.364 2.06 9.252 2.34 9.012 2.604L5.604 6.372Z" fill="white"/>
</svg>
