<svg width="22" height="22" viewBox="0 0 22 22" fill="none" xmlns="http://www.w3.org/2000/svg">
<g clip-path="url(#clip0_16_8555)">
<path fill-rule="evenodd" clip-rule="evenodd" d="M6.59995 0C7.20735 0 7.69977 0.492418 7.69977 1.09982H16.4999C19.5374 1.09982 22 3.56243 22 6.59995V16.4999C22 19.5374 19.5374 22 16.4999 22H5.50013C2.46261 22 0 19.5374 0 16.4999V6.59995C0 3.56243 2.46261 1.09982 5.50013 1.09982C5.50013 0.492418 5.99255 0 6.59995 0ZM5.50013 3.29997C3.67741 3.29997 2.20015 4.77723 2.20015 6.59995V16.4999C2.20015 18.3226 3.67741 19.7998 5.50013 19.7998H16.4999C18.3226 19.7998 19.7998 18.3226 19.7998 16.4999V6.59995C19.7998 4.77723 18.3226 3.29997 16.4999 3.29997H7.69977V4.39979C7.69977 5.0072 7.20735 5.49961 6.59995 5.49961C5.99255 5.49961 5.50013 5.0072 5.50013 4.39979V3.29997Z" fill="black"/>
<path fill-rule="evenodd" clip-rule="evenodd" d="M15.4001 0C16.0075 0 16.4999 0.492418 16.4999 1.09982V4.39979C16.4999 5.0072 16.0075 5.49961 15.4001 5.49961C14.7927 5.49961 14.3003 5.0072 14.3003 4.39979V1.09982C14.3003 0.492418 14.7927 0 15.4001 0Z" fill="black"/>
<path fill-rule="evenodd" clip-rule="evenodd" d="M15.0519 9.09753C15.4953 9.51312 15.5175 10.2092 15.1019 10.6521L10.9769 15.0519C10.583 15.4722 9.93122 15.5175 9.48315 15.155L7.00817 13.1549C6.53586 12.7734 6.46213 12.0804 6.8442 11.6081C7.22628 11.1358 7.91875 11.062 8.39106 11.4436L10.071 12.8012L13.4967 9.14703C13.9123 8.70359 14.6084 8.68142 15.0513 9.09701L15.0519 9.09753Z" fill="black"/>
</g>
<defs>
<clipPath id="clip0_16_8555">
<rect width="22" height="22" fill="white"/>
</clipPath>
</defs>
</svg>
