<svg width="16" height="17" viewBox="0 0 16 17" fill="none" xmlns="http://www.w3.org/2000/svg">
<path opacity="0.8" d="M7.98066 13.2192C7.03266 13.2192 6.28266 13.0033 5.73066 12.5712C5.17866 12.1392 4.90266 11.5573 4.90266 10.8252V10.5373H6.63066C6.63066 10.9573 6.75666 11.2752 7.00866 11.4913C7.26066 11.7073 7.60866 11.8153 8.05266 11.8153C8.52066 11.8153 8.88066 11.7073 9.13266 11.4913C9.38466 11.2633 9.51066 10.9513 9.51066 10.5553C9.51066 10.1353 9.36066 9.80525 9.06066 9.56525C8.77266 9.31325 8.34066 9.18725 7.76466 9.18725H7.24266V7.78325H7.80066C8.18466 7.78325 8.49066 7.72925 8.71866 7.62125C8.95866 7.51325 9.13266 7.36325 9.24066 7.17125C9.34866 6.97925 9.40266 6.75725 9.40266 6.50525C9.40266 6.12125 9.28866 5.83325 9.06066 5.64125C8.83266 5.43725 8.52066 5.33525 8.12466 5.33525C7.71666 5.33525 7.38666 5.43125 7.13466 5.62325C6.88266 5.81525 6.75066 6.07325 6.73866 6.39725H5.06466V6.34325C5.06466 5.65925 5.32866 5.08925 5.85666 4.63325C6.38466 4.16525 7.15866 3.93125 8.17866 3.93125C9.05466 3.93125 9.76866 4.14725 10.3207 4.57925C10.8727 4.99925 11.1487 5.61125 11.1487 6.41525C11.1487 6.95525 11.0107 7.39325 10.7347 7.72925C10.4587 8.06525 10.0507 8.30525 9.51066 8.44925C10.0867 8.56925 10.5247 8.81525 10.8247 9.18725C11.1247 9.55925 11.2747 10.0332 11.2747 10.6093C11.2747 11.4373 10.9747 12.0792 10.3747 12.5352C9.77466 12.9913 8.97666 13.2192 7.98066 13.2192ZM7.99866 16.3693C6.93066 16.3693 5.92266 16.1653 4.97466 15.7573C4.03866 15.3613 3.21066 14.8093 2.49066 14.1013C1.78266 13.3813 1.22466 12.5533 0.816656 11.6173C0.420656 10.6693 0.222656 9.65525 0.222656 8.57525C0.222656 7.49525 0.420656 6.48725 0.816656 5.55125C1.22466 4.60325 1.78266 3.77525 2.49066 3.06725C3.21066 2.34725 4.03866 1.78925 4.97466 1.39325C5.92266 0.98525 6.93066 0.78125 7.99866 0.78125C9.09066 0.78125 10.1047 0.98525 11.0407 1.39325C11.9767 1.78925 12.7987 2.34725 13.5067 3.06725C14.2267 3.77525 14.7847 4.60325 15.1807 5.55125C15.5887 6.48725 15.7927 7.49525 15.7927 8.57525C15.7927 9.65525 15.5887 10.6693 15.1807 11.6173C14.7847 12.5533 14.2267 13.3813 13.5067 14.1013C12.7987 14.8093 11.9767 15.3613 11.0407 15.7573C10.1047 16.1653 9.09066 16.3693 7.99866 16.3693ZM7.99866 14.7673C8.86266 14.7673 9.66666 14.6113 10.4107 14.2993C11.1547 13.9753 11.8087 13.5312 12.3727 12.9672C12.9487 12.3912 13.3927 11.7312 13.7047 10.9873C14.0287 10.2312 14.1907 9.42725 14.1907 8.57525C14.1907 7.71125 14.0287 6.90725 13.7047 6.16325C13.3927 5.41925 12.9487 4.76525 12.3727 4.20125C11.8087 3.62525 11.1547 3.18125 10.4107 2.86925C9.66666 2.54525 8.86266 2.38325 7.99866 2.38325C7.14666 2.38325 6.34266 2.54525 5.58666 2.86925C4.84266 3.18125 4.18866 3.62525 3.62466 4.20125C3.06066 4.76525 2.61666 5.42525 2.29266 6.18125C1.98066 6.92525 1.82466 7.72325 1.82466 8.57525C1.82466 9.43925 1.98066 10.2432 2.29266 10.9873C2.61666 11.7312 3.06066 12.3912 3.62466 12.9672C4.18866 13.5312 4.84266 13.9753 5.58666 14.2993C6.34266 14.6113 7.14666 14.7673 7.99866 14.7673Z" fill="white"/>
</svg>
