<svg width="18" height="18" viewBox="0 0 18 18" fill="none" xmlns="http://www.w3.org/2000/svg">
<path opacity="0.8" d="M8.47903 12.9313V6.25325C8.19103 6.50525 7.86703 6.72725 7.50703 6.91925C7.15903 7.09925 6.83503 7.25525 6.53503 7.38725V5.62325C6.93103 5.44325 7.30303 5.23925 7.65103 5.01125C8.01103 4.78325 8.31103 4.55525 8.55103 4.32725H10.279V12.9313H8.47903ZM9.00103 16.3693C7.92103 16.3693 6.90703 16.1653 5.95903 15.7573C5.02303 15.3613 4.19503 14.8093 3.47503 14.1013C2.76703 13.3813 2.20903 12.5533 1.80103 11.6173C1.40503 10.6693 1.20703 9.65525 1.20703 8.57525C1.20703 7.49525 1.40503 6.48725 1.80103 5.55125C2.20903 4.60325 2.76703 3.77525 3.47503 3.06725C4.19503 2.34725 5.02303 1.78925 5.95903 1.39325C6.90703 0.98525 7.92103 0.78125 9.00103 0.78125C10.081 0.78125 11.089 0.98525 12.025 1.39325C12.973 1.78925 13.801 2.34725 14.509 3.06725C15.229 3.77525 15.787 4.60325 16.183 5.55125C16.591 6.48725 16.795 7.49525 16.795 8.57525C16.795 9.65525 16.591 10.6693 16.183 11.6173C15.787 12.5533 15.229 13.3813 14.509 14.1013C13.801 14.8093 12.973 15.3613 12.025 15.7573C11.089 16.1653 10.081 16.3693 9.00103 16.3693ZM9.00103 14.7673C9.86503 14.7673 10.669 14.6113 11.413 14.2993C12.157 13.9753 12.811 13.5312 13.375 12.9672C13.951 12.3912 14.395 11.7312 14.707 10.9873C15.031 10.2312 15.193 9.42725 15.193 8.57525C15.193 7.71125 15.031 6.90725 14.707 6.16325C14.395 5.41925 13.951 4.76525 13.375 4.20125C12.811 3.62525 12.151 3.18125 11.395 2.86925C10.651 2.54525 9.85303 2.38325 9.00103 2.38325C8.13703 2.38325 7.33303 2.54525 6.58903 2.86925C5.84503 3.18125 5.18503 3.62525 4.60903 4.20125C4.04503 4.76525 3.60103 5.42525 3.27703 6.18125C2.96503 6.92525 2.80903 7.72325 2.80903 8.57525C2.80903 9.43925 2.96503 10.2432 3.27703 10.9873C3.60103 11.7312 4.04503 12.3912 4.60903 12.9672C5.18503 13.5312 5.84503 13.9753 6.58903 14.2993C7.34503 14.6113 8.14903 14.7673 9.00103 14.7673Z" fill="white"/>
</svg>
