<svg width="20" height="20" viewBox="0 0 20 20" fill="none" xmlns="http://www.w3.org/2000/svg">
<g id="Group 631477">
<g id="Rectangle 1483576">
<mask id="path-1-inside-1_31_997" fill="white">
<rect width="20" height="20" rx="1.25"/>
</mask>
<rect width="20" height="20" rx="1.25" stroke="#284733" stroke-width="4" mask="url(#path-1-inside-1_31_997)"/>
</g>
<path id="3" d="M10.0513 15.2506C8.05625 15.2506 6.99312 14.3844 6.875 12.9144C7.01937 12.4944 7.36062 12.3106 7.70187 12.3106C8.22688 12.3106 8.555 12.5731 8.67313 13.4525L8.90938 14.87L8.24 14.4894C8.62063 14.6863 8.90938 14.7913 9.36875 14.7913C10.7206 14.7913 11.4688 14.03 11.4688 12.56C11.4688 11.0113 10.76 10.1844 9.42125 10.1844H8.90938V9.6725H9.35562C10.5106 9.6725 11.285 8.96375 11.285 7.40188C11.285 6.1025 10.6944 5.44625 9.69688 5.44625C9.3425 5.44625 8.93563 5.53813 8.45 5.735L9.27688 5.40688L9.01438 6.75875C8.89625 7.42813 8.48937 7.65125 8.03 7.65125C7.70187 7.65125 7.43938 7.49375 7.295 7.24437C7.33438 5.66938 8.7125 5 10.3137 5C12.3875 5 13.3719 5.97125 13.3719 7.32313C13.3719 8.70125 12.4794 9.76438 9.99875 9.9875V9.7775C12.7419 9.92188 13.6737 10.9981 13.6737 12.5469C13.6737 14.1481 12.2956 15.2506 10.0513 15.2506Z" fill="#284733"/>
</g>
</svg>
