<svg width="32" height="32" viewBox="0 0 32 32" fill="none" xmlns="http://www.w3.org/2000/svg">
<g id="Group 631456">
<rect id="Rectangle 1483576" width="32" height="32" rx="2" fill="#284733"/>
<path id="2" d="M11.042 24.044V22.154C12.26 20.831 13.436 19.508 14.465 18.332C16.754 15.749 17.783 14.363 17.783 12.074C17.783 9.932 16.796 8.714 15.179 8.714C14.591 8.714 13.961 8.861 13.331 9.155L14.381 8.693L13.94 10.961C13.709 12.389 13.016 12.725 12.365 12.725C11.756 12.725 11.231 12.368 11 11.822C11.126 9.323 13.562 8 16.355 8C19.673 8 21.206 9.785 21.206 12.284C21.206 14.552 19.274 16.19 15.368 19.256C14.591 19.886 13.436 20.852 12.302 21.839L12.554 21.041V21.461H21.584V24.044H11.042Z" fill="white"/>
</g>
</svg>
