<svg width="32" height="32" viewBox="0 0 32 32" fill="none" xmlns="http://www.w3.org/2000/svg">
<g id="Group 631459">
<rect id="Rectangle 1483576" width="32" height="32" rx="2" fill="#284733"/>
<path id="5" d="M14.872 24.044C11.932 24.044 10.168 22.595 10 20.306C10.231 19.676 10.777 19.361 11.365 19.361C12.226 19.361 12.73 19.823 12.856 21.062L13.192 23.372L12.478 22.847C13.129 23.183 13.507 23.309 14.263 23.309C16.195 23.309 17.476 21.902 17.476 19.235C17.476 16.82 16.237 15.455 14.284 15.455C13.486 15.455 12.793 15.581 12.058 15.812L11.428 15.392L11.932 8H20.521V10.604H12.373L12.919 8.672L12.457 15.308L11.575 15.035C12.793 14.51 13.99 14.321 15.334 14.321C18.883 14.321 21.067 15.959 21.067 19.088C21.067 22.322 18.463 24.044 14.872 24.044Z" fill="white"/>
</g>
</svg>
