<svg width="32" height="32" viewBox="0 0 32 32" fill="none" xmlns="http://www.w3.org/2000/svg">
<g id="Group 631457">
<rect id="Rectangle 1483576" width="32" height="32" rx="2" fill="white"/>
<path id="3" d="M16.082 24.401C12.89 24.401 11.189 23.015 11 20.663C11.231 19.991 11.777 19.697 12.323 19.697C13.163 19.697 13.688 20.117 13.877 21.524L14.255 23.792L13.184 23.183C13.793 23.498 14.255 23.666 14.99 23.666C17.153 23.666 18.35 22.448 18.35 20.096C18.35 17.618 17.216 16.295 15.074 16.295H14.255V15.476H14.969C16.817 15.476 18.056 14.342 18.056 11.843C18.056 9.764 17.111 8.714 15.515 8.714C14.948 8.714 14.297 8.861 13.52 9.176L14.843 8.651L14.423 10.814C14.234 11.885 13.583 12.242 12.848 12.242C12.323 12.242 11.903 11.99 11.672 11.591C11.735 9.071 13.94 8 16.502 8C19.82 8 21.395 9.554 21.395 11.717C21.395 13.922 19.967 15.623 15.998 15.98V15.644C20.387 15.875 21.878 17.597 21.878 20.075C21.878 22.637 19.673 24.401 16.082 24.401Z" fill="#284733"/>
</g>
</svg>
