<svg width="53" height="53" viewBox="0 0 53 53" fill="none" xmlns="http://www.w3.org/2000/svg">
<path fill-rule="evenodd" clip-rule="evenodd" d="M38.9482 20.9987C41.2549 20.194 43.5615 19.3893 45.868 18.5847C47.8778 17.8835 47.122 14.6241 45.0872 15.3339C42.7806 16.1386 40.474 16.9433 38.1676 17.748C36.1577 18.4492 36.9135 21.7086 38.9482 20.9987Z" fill="#FFD5D4"/>
<mask id="mask0_124_4576" style="mask-type:luminance" maskUnits="userSpaceOnUse" x="22" y="4" width="8" height="11">
<path fill-rule="evenodd" clip-rule="evenodd" d="M25.4922 4.71094L29.5029 5.93158L26.8475 14.7018L22.8369 13.4812L25.4922 4.71094Z" fill="white"/>
</mask>
<g mask="url(#mask0_124_4576)">
<path fill-rule="evenodd" clip-rule="evenodd" d="M24.9105 6.73174C24.6351 8.68475 24.36 10.6378 24.0847 12.5909C23.9579 13.4906 24.8887 14.2744 25.716 14.3059C26.7038 14.3439 27.304 13.5697 27.4293 12.6811C27.7046 10.7281 27.9798 8.77503 28.255 6.82199C28.3817 5.92224 27.451 5.13848 26.6236 5.10675C25.6359 5.06913 25.0356 5.84314 24.9105 6.73174Z" fill="#FFD5D4"/>
</g>
<path fill-rule="evenodd" clip-rule="evenodd" d="M8.06834 19.3349C9.59727 20.0161 11.1261 20.697 12.6549 21.3781C13.4819 21.7464 14.5013 21.0546 14.7395 20.2678C15.0278 19.3155 14.4518 18.5524 13.6223 18.1829C12.0935 17.502 10.5647 16.8208 9.03573 16.1398C8.20863 15.7714 7.18945 16.4633 6.95123 17.2501C6.66292 18.2024 7.23882 18.9654 8.06834 19.3349Z" fill="#FFD5D4"/>
<path fill-rule="evenodd" clip-rule="evenodd" d="M8.91687 39.7919C11.314 38.5596 13.711 37.3273 16.1081 36.0951C18.0234 35.1104 16.4418 32.1629 14.5282 33.1467C12.131 34.3789 9.73406 35.6111 7.3369 36.8435C5.42163 37.8281 7.00322 40.7756 8.91687 39.7919Z" fill="#FFD5D4"/>
<path fill-rule="evenodd" clip-rule="evenodd" d="M26.902 40.4552C26.7803 42.6019 26.6584 44.7484 26.5368 46.8951C26.4151 49.04 29.7595 49.1339 29.8814 46.9853C30.0031 44.8386 30.125 42.6922 30.2466 40.5454C30.3683 38.4006 27.0239 38.3066 26.902 40.4552Z" fill="#FFD5D4"/>
<mask id="mask1_124_4576" style="mask-type:luminance" maskUnits="userSpaceOnUse" x="35" y="30" width="12" height="9">
<path fill-rule="evenodd" clip-rule="evenodd" d="M37.0156 30.8672L46.369 33.7139L44.8737 38.6524L35.5204 35.8057L37.0156 30.8672Z" fill="white"/>
</mask>
<g mask="url(#mask1_124_4576)">
<path fill-rule="evenodd" clip-rule="evenodd" d="M37.1941 34.358C39.0998 35.5664 41.0055 36.775 42.9112 37.9836C44.7333 39.1391 46.515 36.3157 44.6952 35.1616C42.7895 33.953 40.8838 32.7446 38.9781 31.536C37.156 30.3805 35.3745 33.204 37.1941 34.358Z" fill="#FFD5D4"/>
</g>
</svg>
